STARTFONT 2.1
FONT -Angband-Wide-Medium-R-Normal--16-120-100-100-C-80-ISO10646-1
SIZE 12 100 100
FONTBOUNDINGBOX 16 16 0 -3

STARTPROPERTIES 20
FAMILY_NAME "Wide"
FOUNDRY "Angband"
WEIGHT_NAME "Medium"
SLANT "R"
SETWIDTH_NAME "Normal"
FONT_VERSION "1.0"
COPYRIGHT "Mikolaj Konarski, Leon Marrick and others 2019; released under GNU GPL-2"
CAP_HEIGHT 13
PIXEL_SIZE 16
POINT_SIZE 120
X_HEIGHT 8
RESOLUTION_X 100
RESOLUTION_Y 100
SPACING "C"
AVERAGE_WIDTH 80
WEIGHT 10
QUAD_WIDTH 16
DEFAULT_CHAR 32
FONT_DESCENT 3
FONT_ASCENT 13
ENDPROPERTIES

CHARS 385

STARTCHAR U+0007
ENCODING 7
SWIDTH 1000 0
DWIDTH 16 0
BBX 16 16 0 -3
BITMAP
0000
0000
0000
0000
0000
0000
0000
0000
0180
0000
0000
0000
0000
0000
0000
0000
ENDCHAR

STARTCHAR U+0020
ENCODING 32
SWIDTH 1000 0
DWIDTH 16 0
BBX 16 16 0 -3
BITMAP
0000
0000
0000
0000
0000
0000
0000
0000
0000
0000
0000
0000
0000
0000
0000
0000
ENDCHAR

STARTCHAR U+0021
ENCODING 33
SWIDTH 1000 0
DWIDTH 16 0
BBX 16 16 0 -3
BITMAP
0000
0000
0180
03C0
03C0
03C0
03C0
0180
0180
0180
0000
0180
03C0
0180
0000
0000
ENDCHAR

STARTCHAR U+0022
ENCODING 34
SWIDTH 1000 0
DWIDTH 16 0
BBX 16 16 0 -3
BITMAP
0000
0630
0630
0630
0630
0000
0000
0000
0000
0000
0000
0000
0000
0000
0000
0000
ENDCHAR

STARTCHAR U+0023
ENCODING 35
SWIDTH 1000 0
DWIDTH 16 0
BBX 16 16 0 -3
BITMAP
0000
0000
0C30
0C30
3FFC
3FFC
0C30
0C30
0C30
0C30
3FFC
3FFC
0C30
0C30
0000
0000
ENDCHAR

STARTCHAR U+0024
ENCODING 36
SWIDTH 1000 0
DWIDTH 16 0
BBX 16 16 0 -3
BITMAP
0000
0180
0FF0
1998
3180
3180
1980
0FF0
0198
018C
018C
3198
1FF0
0180
0000
0000
ENDCHAR

STARTCHAR U+0025
ENCODING 37
SWIDTH 1000 0
DWIDTH 16 0
BBX 16 16 0 -3
BITMAP
0000
0000
1C18
3618
2230
3660
1CC0
0180
0338
066C
0C44
186C
1838
0000
0000
0000
ENDCHAR

STARTCHAR U+0026
ENCODING 38
SWIDTH 1000 0
DWIDTH 16 0
BBX 16 16 0 -3
BITMAP
0000
0000
07C0
0E60
1C30
0E60
07C0
0FC6
1C6C
3838
3838
1C7C
0FCE
0000
0000
0000
ENDCHAR

STARTCHAR U+0027
ENCODING 39
SWIDTH 1000 0
DWIDTH 16 0
BBX 16 16 0 -3
BITMAP
0000
0180
03C0
03C0
0180
0300
0000
0000
0000
0000
0000
0000
0000
0000
0000
0000
ENDCHAR

STARTCHAR U+0028
ENCODING 40
SWIDTH 1000 0
DWIDTH 16 0
BBX 16 16 0 -3
BITMAP
0000
0000
00F0
01C0
0380
0700
0700
0700
0700
0700
0380
01C0
00F0
0000
0000
0000
ENDCHAR

STARTCHAR U+0029
ENCODING 41
SWIDTH 1000 0
DWIDTH 16 0
BBX 16 16 0 -3
BITMAP
0000
0000
0F00
0380
01C0
00E0
00E0
00E0
00E0
00E0
01C0
0380
0F00
0000
0000
0000
ENDCHAR

STARTCHAR U+002A
ENCODING 42
SWIDTH 1000 0
DWIDTH 16 0
BBX 16 16 0 -3
BITMAP
0000
0000
0000
0000
0630
0770
03E0
0FF8
0FF8
03E0
0770
0630
0000
0000
0000
0000
ENDCHAR

STARTCHAR U+002B
ENCODING 43
SWIDTH 1000 0
DWIDTH 16 0
BBX 16 16 0 -3
BITMAP
0000
0000
0000
0180
0180
0180
0180
1FF8
1FF8
0180
0180
0180
0180
0000
0000
0000
ENDCHAR

STARTCHAR U+002C
ENCODING 44
SWIDTH 1000 0
DWIDTH 16 0
BBX 16 16 0 -3
BITMAP
0000
0000
0000
0000
0000
0000
0000
0000
0000
0000
0180
03C0
03C0
0180
0700
0000
ENDCHAR

STARTCHAR U+002D
ENCODING 45
SWIDTH 1000 0
DWIDTH 16 0
BBX 16 16 0 -3
BITMAP
0000
0000
0000
0000
0000
0000
0000
1FF8
1FF8
0000
0000
0000
0000
0000
0000
0000
ENDCHAR

STARTCHAR U+002E
ENCODING 46
SWIDTH 1000 0
DWIDTH 16 0
BBX 16 16 0 -3
BITMAP
0000
0000
0000
0000
0000
0000
0000
0000
0000
0000
0180
03C0
03C0
0180
0000
0000
ENDCHAR

STARTCHAR U+002F
ENCODING 47
SWIDTH 1000 0
DWIDTH 16 0
BBX 16 16 0 -3
BITMAP
0000
0000
000C
001C
0030
0060
00C0
0180
0300
0600
0C00
3800
3000
0000
0000
0000
ENDCHAR

STARTCHAR U+0030
ENCODING 48
SWIDTH 1000 0
DWIDTH 16 0
BBX 16 16 0 -3
BITMAP
0000
0000
0FF0
1818
300C
300C
300C
318C
300C
300C
300C
1818
0FF0
0000
0000
0000
ENDCHAR

STARTCHAR U+0031
ENCODING 49
SWIDTH 1000 0
DWIDTH 16 0
BBX 16 16 0 -3
BITMAP
0000
0000
00C0
01C0
0FC0
00C0
00C0
00C0
00C0
00C0
00C0
00C0
3FFE
0000
0000
0000
ENDCHAR

STARTCHAR U+0032
ENCODING 50
SWIDTH 1000 0
DWIDTH 16 0
BBX 16 16 0 -3
BITMAP
0000
0000
0FF0
3818
000C
000C
0038
01E0
0700
1C00
3000
3006
3FFC
0000
0000
0000
ENDCHAR

STARTCHAR U+0033
ENCODING 51
SWIDTH 1000 0
DWIDTH 16 0
BBX 16 16 0 -3
BITMAP
0000
0000
07F0
1C18
000C
000C
0018
03F8
000C
0006
0006
380C
0FF8
0000
0000
0000
ENDCHAR

STARTCHAR U+0034
ENCODING 52
SWIDTH 1000 0
DWIDTH 16 0
BBX 16 16 0 -3
BITMAP
0000
0000
300C
300C
300C
300C
300C
1FFC
000C
000C
000C
000C
000C
0000
0000
0000
ENDCHAR

STARTCHAR U+0035
ENCODING 53
SWIDTH 1000 0
DWIDTH 16 0
BBX 16 16 0 -3
BITMAP
0000
0000
3FFC
3000
3000
3000
3FF0
0018
000C
000C
000C
3818
0FF0
0000
0000
0000
ENDCHAR

STARTCHAR U+0036
ENCODING 54
SWIDTH 1000 0
DWIDTH 16 0
BBX 16 16 0 -3
BITMAP
0000
0000
07F0
0C18
1800
3000
3000
3FF0
3018
300C
300C
1818
0FF0
0000
0000
0000
ENDCHAR

STARTCHAR U+0037
ENCODING 55
SWIDTH 1000 0
DWIDTH 16 0
BBX 16 16 0 -3
BITMAP
0000
0000
3FFE
000E
001C
0038
0070
00E0
01C0
0380
0700
0E00
1C00
0000
0000
0000
ENDCHAR

STARTCHAR U+0038
ENCODING 56
SWIDTH 1000 0
DWIDTH 16 0
BBX 16 16 0 -3
BITMAP
0000
0000
07E0
0C30
1818
1818
0C30
0FF0
1818
300C
300C
1818
0FF0
0000
0000
0000
ENDCHAR

STARTCHAR U+0039
ENCODING 57
SWIDTH 1000 0
DWIDTH 16 0
BBX 16 16 0 -3
BITMAP
0000
0000
0FF0
1818
300C
300C
180C
0FFC
000C
000C
000C
3818
0FF0
0000
0000
0000
ENDCHAR

STARTCHAR U+003A
ENCODING 58
SWIDTH 1000 0
DWIDTH 16 0
BBX 16 16 0 -3
BITMAP
0000
0000
0000
0000
0180
03C0
03C0
0180
0000
0000
0180
03C0
03C0
0180
0000
0000
ENDCHAR

STARTCHAR U+003B
ENCODING 59
SWIDTH 1000 0
DWIDTH 16 0
BBX 16 16 0 -3
BITMAP
0000
0000
0000
0000
0180
03C0
03C0
0180
0000
0000
0180
03C0
03C0
0180
0700
0000
ENDCHAR

STARTCHAR U+003C
ENCODING 60
SWIDTH 1000 0
DWIDTH 16 0
BBX 16 16 0 -3
BITMAP
0000
0000
0000
0038
00E0
0380
0E00
3800
3800
0E00
0380
00E0
0038
0000
0000
0000
ENDCHAR

STARTCHAR U+003D
ENCODING 61
SWIDTH 1000 0
DWIDTH 16 0
BBX 16 16 0 -3
BITMAP
0000
0000
0000
0000
0000
1FF8
1FF8
0000
0000
1FF8
1FF8
0000
0000
0000
0000
0000
ENDCHAR

STARTCHAR U+003E
ENCODING 62
SWIDTH 1000 0
DWIDTH 16 0
BBX 16 16 0 -3
BITMAP
0000
0000
0000
1C00
0700
01C0
0070
001C
001C
0070
01C0
0700
1C00
0000
0000
0000
ENDCHAR

STARTCHAR U+003F
ENCODING 63
SWIDTH 1000 0
DWIDTH 16 0
BBX 16 16 0 -3
BITMAP
0000
0000
07F0
0C18
180C
000C
000C
0038
00E0
0180
0000
0180
03C0
0180
0000
0000
ENDCHAR

STARTCHAR U+0040
ENCODING 64
SWIDTH 1000 0
DWIDTH 16 0
BBX 16 16 0 -3
BITMAP
0000
0000
0FF0
1C18
380C
31FC
331C
331C
331C
31F8
3800
1C18
0FF0
0000
0000
0000
ENDCHAR

STARTCHAR U+0041
ENCODING 65
SWIDTH 1000 0
DWIDTH 16 0
BBX 16 16 0 -3
BITMAP
0000
0000
0FC0
01C0
0360
0360
0630
0630
0FF8
0C18
180C
180C
7E3F
0000
0000
0000
ENDCHAR

STARTCHAR U+0042
ENCODING 66
SWIDTH 1000 0
DWIDTH 16 0
BBX 16 16 0 -3
BITMAP
0000
0000
7FE0
1830
1818
1818
1830
1FF0
1818
180C
180C
1818
7FF0
0000
0000
0000
ENDCHAR

STARTCHAR U+0043
ENCODING 67
SWIDTH 1000 0
DWIDTH 16 0
BBX 16 16 0 -3
BITMAP
0000
0000
0FF8
180C
3006
3000
3000
3000
3000
3000
3006
180C
0FF8
0000
0000
0000
ENDCHAR

STARTCHAR U+0044
ENCODING 68
SWIDTH 1000 0
DWIDTH 16 0
BBX 16 16 0 -3
BITMAP
0000
0000
7FE0
1830
1818
180C
180C
180C
180C
180C
1818
1830
7FE0
0000
0000
0000
ENDCHAR

STARTCHAR U+0045
ENCODING 69
SWIDTH 1000 0
DWIDTH 16 0
BBX 16 16 0 -3
BITMAP
0000
0000
7FFC
1806
1800
1800
1800
1FF0
1800
1800
1800
1806
7FFC
0000
0000
0000
ENDCHAR

STARTCHAR U+0046
ENCODING 70
SWIDTH 1000 0
DWIDTH 16 0
BBX 16 16 0 -3
BITMAP
0000
0000
7FFC
1806
1800
1800
1800
1FF0
1800
1800
1800
1800
7E00
0000
0000
0000
ENDCHAR

STARTCHAR U+0047
ENCODING 71
SWIDTH 1000 0
DWIDTH 16 0
BBX 16 16 0 -3
BITMAP
0000
0000
0FF0
1818
300C
3000
3000
3000
30FF
300C
300C
1818
0FF0
0000
0000
0000
ENDCHAR

STARTCHAR U+0048
ENCODING 72
SWIDTH 1000 0
DWIDTH 16 0
BBX 16 16 0 -3
BITMAP
0000
0000
7C1F
180C
180C
180C
180C
1FFC
180C
180C
180C
180C
7C1F
0000
0000
0000
ENDCHAR

STARTCHAR U+0049
ENCODING 73
SWIDTH 1000 0
DWIDTH 16 0
BBX 16 16 0 -3
BITMAP
0000
0000
3FFC
0180
0180
0180
0180
0180
0180
0180
0180
0180
3FFC
0000
0000
0000
ENDCHAR

STARTCHAR U+004A
ENCODING 74
SWIDTH 1000 0
DWIDTH 16 0
BBX 16 16 0 -3
BITMAP
0000
0000
003F
000C
000C
000C
000C
000C
000C
000C
000C
7018
1FF0
0000
0000
0000
ENDCHAR

STARTCHAR U+004B
ENCODING 75
SWIDTH 1000 0
DWIDTH 16 0
BBX 16 16 0 -3
BITMAP
0000
0000
7C3E
1818
1830
1860
18C0
1FC0
1860
1830
1818
180C
7C1F
0000
0000
0000
ENDCHAR

STARTCHAR U+004C
ENCODING 76
SWIDTH 1000 0
DWIDTH 16 0
BBX 16 16 0 -3
BITMAP
0000
0000
7E00
1800
1800
1800
1800
1800
1800
1800
1800
1803
7FFE
0000
0000
0000
ENDCHAR

STARTCHAR U+004D
ENCODING 77
SWIDTH 1000 0
DWIDTH 16 0
BBX 16 16 0 -3
BITMAP
0000
0000
780F
1C1C
1E3C
1B6C
19CC
188C
180C
180C
180C
180C
7C1F
0000
0000
0000
ENDCHAR

STARTCHAR U+004E
ENCODING 78
SWIDTH 1000 0
DWIDTH 16 0
BBX 16 16 0 -3
BITMAP
0000
0000
783F
180C
1C0C
1E0C
1B0C
198C
18CC
186C
183C
181C
7E0C
0000
0000
0000
ENDCHAR

STARTCHAR U+004F
ENCODING 79
SWIDTH 1000 0
DWIDTH 16 0
BBX 16 16 0 -3
BITMAP
0000
0000
0FF0
1818
300C
300C
300C
300C
300C
300C
300C
1818
0FF0
0000
0000
0000
ENDCHAR

STARTCHAR U+0050
ENCODING 80
SWIDTH 1000 0
DWIDTH 16 0
BBX 16 16 0 -3
BITMAP
0000
0000
7FF8
180C
1806
1806
180C
1FF8
1800
1800
1800
1800
7E00
0000
0000
0000
ENDCHAR

STARTCHAR U+0051
ENCODING 81
SWIDTH 1000 0
DWIDTH 16 0
BBX 16 16 0 -3
BITMAP
0000
0000
0FF0
1818
300C
300C
300C
300C
300C
300C
31CC
18E8
0FF0
0038
0000
0000
ENDCHAR

STARTCHAR U+0052
ENCODING 82
SWIDTH 1000 0
DWIDTH 16 0
BBX 16 16 0 -3
BITMAP
0000
0000
7FF0
1818
180C
180C
1818
1FF0
18C0
1860
1830
1818
7C3F
0000
0000
0000
ENDCHAR

STARTCHAR U+0053
ENCODING 83
SWIDTH 1000 0
DWIDTH 16 0
BBX 16 16 0 -3
BITMAP
0000
0000
0FF8
1C0C
3800
3800
1C00
0FF8
001C
000E
000E
301C
1FF0
0000
0000
0000
ENDCHAR

STARTCHAR U+0054
ENCODING 84
SWIDTH 1000 0
DWIDTH 16 0
BBX 16 16 0 -3
BITMAP
0000
0000
3FFC
6186
0180
0180
0180
0180
0180
0180
0180
0180
07E0
0000
0000
0000
ENDCHAR

STARTCHAR U+0055
ENCODING 85
SWIDTH 1000 0
DWIDTH 16 0
BBX 16 16 0 -3
BITMAP
0000
0000
7C1F
180C
180C
180C
180C
180C
180C
180C
180C
0C18
07F0
0000
0000
0000
ENDCHAR

STARTCHAR U+0056
ENCODING 86
SWIDTH 1000 0
DWIDTH 16 0
BBX 16 16 0 -3
BITMAP
0000
0000
7C1F
180C
180C
0C18
0C18
0630
0630
0360
0360
01C0
01C0
0000
0000
0000
ENDCHAR

STARTCHAR U+0057
ENCODING 87
SWIDTH 1000 0
DWIDTH 16 0
BBX 16 16 0 -3
BITMAP
0000
0000
7C1F
180C
180C
180C
180C
188C
19CC
1B6C
1E3C
1C1C
180C
0000
0000
0000
ENDCHAR

STARTCHAR U+0058
ENCODING 88
SWIDTH 1000 0
DWIDTH 16 0
BBX 16 16 0 -3
BITMAP
0000
0000
7C3E
1818
0C30
0660
03C0
0180
03C0
0660
0C30
1818
7C3E
0000
0000
0000
ENDCHAR

STARTCHAR U+0059
ENCODING 89
SWIDTH 1000 0
DWIDTH 16 0
BBX 16 16 0 -3
BITMAP
0000
0000
7C3E
1818
0C30
0660
03C0
0180
0180
0180
0180
0180
07E0
0000
0000
0000
ENDCHAR

STARTCHAR U+005A
ENCODING 90
SWIDTH 1000 0
DWIDTH 16 0
BBX 16 16 0 -3
BITMAP
0000
0000
3FFE
601C
0038
0070
00E0
01C0
0380
0700
0E00
1C03
3FFE
0000
0000
0000
ENDCHAR

STARTCHAR U+005B
ENCODING 91
SWIDTH 1000 0
DWIDTH 16 0
BBX 16 16 0 -3
BITMAP
0000
0000
07F0
0600
0600
0600
0600
0600
0600
0600
0600
0600
07F0
0000
0000
0000
ENDCHAR

STARTCHAR U+005C
ENCODING 92
SWIDTH 1000 0
DWIDTH 16 0
BBX 16 16 0 -3
BITMAP
0000
0000
3000
3800
0C00
0600
0300
0180
00C0
0060
0030
001C
000C
0000
0000
0000
ENDCHAR

STARTCHAR U+005D
ENCODING 93
SWIDTH 1000 0
DWIDTH 16 0
BBX 16 16 0 -3
BITMAP
0000
0000
0FE0
0060
0060
0060
0060
0060
0060
0060
0060
0060
0FE0
0000
0000
0000
ENDCHAR

STARTCHAR U+005E
ENCODING 94
SWIDTH 1000 0
DWIDTH 16 0
BBX 16 16 0 -3
BITMAP
0000
0000
0180
03C0
0660
0C30
1818
300C
0000
0000
0000
0000
0000
0000
0000
0000
ENDCHAR

STARTCHAR U+005F
ENCODING 95
SWIDTH 1000 0
DWIDTH 16 0
BBX 16 16 0 -3
BITMAP
0000
0000
0000
0000
0000
0000
0000
0000
0000
0000
0000
0000
7FFE
7FFE
0000
0000
ENDCHAR

STARTCHAR U+0060
ENCODING 96
SWIDTH 1000 0
DWIDTH 16 0
BBX 16 16 0 -3
BITMAP
0000
0700
0380
01C0
00E0
0000
0000
0000
0000
0000
0000
0000
0000
0000
0000
0000
ENDCHAR

STARTCHAR U+0061
ENCODING 97
SWIDTH 1000 0
DWIDTH 16 0
BBX 16 16 0 -3
BITMAP
0000
0000
0000
0000
0000
1FF8
700C
000C
0FFC
180C
300C
301C
1FE7
0000
0000
0000
ENDCHAR

STARTCHAR U+0062
ENCODING 98
SWIDTH 1000 0
DWIDTH 16 0
BBX 16 16 0 -3
BITMAP
0000
0000
7800
1800
1800
1800
1FF8
180C
1806
1806
1806
1C06
73FC
0000
0000
0000
ENDCHAR

STARTCHAR U+0063
ENCODING 99
SWIDTH 1000 0
DWIDTH 16 0
BBX 16 16 0 -3
BITMAP
0000
0000
0000
0000
0000
1FF8
300C
6000
6000
6000
6000
3007
1FFC
0000
0000
0000
ENDCHAR

STARTCHAR U+0064
ENCODING 100
SWIDTH 1000 0
DWIDTH 16 0
BBX 16 16 0 -3
BITMAP
0000
0000
003C
000C
000C
000C
0FFC
180C
300C
300C
300C
301C
1FE7
0000
0000
0000
ENDCHAR

STARTCHAR U+0065
ENCODING 101
SWIDTH 1000 0
DWIDTH 16 0
BBX 16 16 0 -3
BITMAP
0000
0000
0000
0000
0000
1FF8
300C
600C
7FF8
6000
6000
3007
1FFC
0000
0000
0000
ENDCHAR

STARTCHAR U+0066
ENCODING 102
SWIDTH 1000 0
DWIDTH 16 0
BBX 16 16 0 -3
BITMAP
0000
0000
0000
01FC
0606
0600
7FF8
0600
0600
0600
0600
0600
3FC0
0000
0000
0000
ENDCHAR

STARTCHAR U+0067
ENCODING 103
SWIDTH 1000 0
DWIDTH 16 0
BBX 16 16 0 -3
BITMAP
0000
0000
0000
0000
0000
0FE7
181C
300C
300C
180C
0FFC
000C
700C
1FF8
0000
0000
ENDCHAR

STARTCHAR U+0068
ENCODING 104
SWIDTH 1000 0
DWIDTH 16 0
BBX 16 16 0 -3
BITMAP
0000
0000
7800
1800
1800
1800
1FF8
180C
180C
180C
180C
180C
7E0F
0000
0000
0000
ENDCHAR

STARTCHAR U+0069
ENCODING 105
SWIDTH 1000 0
DWIDTH 16 0
BBX 16 16 0 -3
BITMAP
0000
0000
00C0
00C0
0000
0000
1FC0
00C0
00C0
00C0
00C0
00C0
7FFF
0000
0000
0000
ENDCHAR

STARTCHAR U+006A
ENCODING 106
SWIDTH 1000 0
DWIDTH 16 0
BBX 16 16 0 -3
BITMAP
0000
0000
000C
000C
0000
0000
03FC
000C
000C
000C
000C
000C
700C
1FF8
0000
0000
ENDCHAR

STARTCHAR U+006B
ENCODING 107
SWIDTH 1000 0
DWIDTH 16 0
BBX 16 16 0 -3
BITMAP
0000
0000
7800
1800
1800
181E
1830
1860
18C0
1FE0
1830
1818
7E3F
0000
0000
0000
ENDCHAR

STARTCHAR U+006C
ENCODING 108
SWIDTH 1000 0
DWIDTH 16 0
BBX 16 16 0 -3
BITMAP
0000
0000
0000
FE00
0600
0600
0600
0600
0600
0600
0600
0607
01FC
0000
0000
0000
ENDCHAR

STARTCHAR U+006D
ENCODING 109
SWIDTH 1000 0
DWIDTH 16 0
BBX 16 16 0 -3
BITMAP
0000
0000
0000
0000
0000
7E70
318C
318C
318C
318C
318C
318C
718F
0000
0000
0000
ENDCHAR

STARTCHAR U+006E
ENCODING 110
SWIDTH 1000 0
DWIDTH 16 0
BBX 16 16 0 -3
BITMAP
0000
0000
0000
0000
0000
73F0
1C18
180C
180C
180C
180C
180C
7E0F
0000
0000
0000
ENDCHAR

STARTCHAR U+006F
ENCODING 111
SWIDTH 1000 0
DWIDTH 16 0
BBX 16 16 0 -3
BITMAP
0000
0000
0000
0000
0000
1FF8
300C
6006
6006
6006
6006
300C
1FF8
0000
0000
0000
ENDCHAR

STARTCHAR U+0070
ENCODING 112
SWIDTH 1000 0
DWIDTH 16 0
BBX 16 16 0 -3
BITMAP
0000
0000
0000
0000
0000
73F8
1C0C
1806
1806
1806
1806
1FFC
1800
1800
1800
7800
ENDCHAR

STARTCHAR U+0071
ENCODING 113
SWIDTH 1000 0
DWIDTH 16 0
BBX 16 16 0 -3
BITMAP
0000
0000
0000
0000
0000
0FEC
181C
300C
300C
300C
300C
1FFC
000C
000C
000C
000F
ENDCHAR

STARTCHAR U+0072
ENCODING 114
SWIDTH 1000 0
DWIDTH 16 0
BBX 16 16 0 -3
BITMAP
0000
0000
0000
0000
0000
79FC
0E07
0C00
0C00
0C00
0C00
0C00
7F80
0000
0000
0000
ENDCHAR

STARTCHAR U+0073
ENCODING 115
SWIDTH 1000 0
DWIDTH 16 0
BBX 16 16 0 -3
BITMAP
0000
0000
0000
0000
0000
0FFC
3807
3800
0FF8
000C
0006
7006
1FFC
0000
0000
0000
ENDCHAR

STARTCHAR U+0074
ENCODING 116
SWIDTH 1000 0
DWIDTH 16 0
BBX 16 16 0 -3
BITMAP
0000
0000
0000
0600
0600
0600
7FF8
0600
0600
0600
0600
0607
01FC
0000
0000
0000
ENDCHAR

STARTCHAR U+0075
ENCODING 117
SWIDTH 1000 0
DWIDTH 16 0
BBX 16 16 0 -3
BITMAP
0000
0000
0000
0000
0000
783C
180C
180C
180C
180C
180C
181C
0FE7
0000
0000
0000
ENDCHAR

STARTCHAR U+0076
ENCODING 118
SWIDTH 1000 0
DWIDTH 16 0
BBX 16 16 0 -3
BITMAP
0000
0000
0000
0000
0000
7C1F
180C
180C
0C18
0630
0360
01C0
01C0
0000
0000
0000
ENDCHAR

STARTCHAR U+0077
ENCODING 119
SWIDTH 1000 0
DWIDTH 16 0
BBX 16 16 0 -3
BITMAP
0000
0000
0000
0000
0000
780F
180C
180C
180C
19CC
19CC
0F78
0630
0000
0000
0000
ENDCHAR

STARTCHAR U+0078
ENCODING 120
SWIDTH 1000 0
DWIDTH 16 0
BBX 16 16 0 -3
BITMAP
0000
0000
0000
0000
0000
7C1F
180C
0630
01C0
01C0
0630
180C
7C1F
0000
0000
0000
ENDCHAR

STARTCHAR U+0079
ENCODING 121
SWIDTH 1000 0
DWIDTH 16 0
BBX 16 16 0 -3
BITMAP
0000
0000
0000
0000
0000
783F
180C
180C
180C
180C
0FFC
000C
700C
1FF8
0000
0000
ENDCHAR

STARTCHAR U+007A
ENCODING 122
SWIDTH 1000 0
DWIDTH 16 0
BBX 16 16 0 -3
BITMAP
0000
0000
0000
0000
0000
3FFE
600E
0038
00E0
0380
0E00
3803
3FFE
0000
0000
0000
ENDCHAR

STARTCHAR U+007B
ENCODING 123
SWIDTH 1000 0
DWIDTH 16 0
BBX 16 16 0 -3
BITMAP
0000
0000
00F0
0180
0180
0180
0300
0E00
0300
0180
0180
0180
00F0
0000
0000
0000
ENDCHAR

STARTCHAR U+007C
ENCODING 124
SWIDTH 1000 0
DWIDTH 16 0
BBX 16 16 0 -3
BITMAP
0000
0000
0180
0180
0180
0180
0180
0180
0180
0180
0180
0180
0180
0180
0000
0000
ENDCHAR

STARTCHAR U+007D
ENCODING 125
SWIDTH 1000 0
DWIDTH 16 0
BBX 16 16 0 -3
BITMAP
0000
0000
0F00
0180
0180
0180
00C0
0070
00C0
0180
0180
0180
0F00
0000
0000
0000
ENDCHAR

STARTCHAR U+007E
ENCODING 126
SWIDTH 1000 0
DWIDTH 16 0
BBX 16 16 0 -3
BITMAP
0000
0000
0000
0000
0000
0000
0F0C
1F9C
39F8
30F0
0000
0000
0000
0000
0000
0000
ENDCHAR

STARTCHAR U+00A0
ENCODING 160
SWIDTH 1000 0
DWIDTH 16 0
BBX 16 16 0 -3
BITMAP
0000
0000
0000
0000
0000
0000
0000
0000
0000
0000
0000
0000
0000
0000
0000
0000
ENDCHAR

STARTCHAR U+00A1
ENCODING 161
SWIDTH 1000 0
DWIDTH 16 0
BBX 16 16 0 -3
BITMAP
0000
0000
0180
03C0
0180
0000
0180
0180
0180
03C0
03C0
03C0
03C0
0180
0000
0000
ENDCHAR

STARTCHAR U+00A2
ENCODING 162
SWIDTH 1000 0
DWIDTH 16 0
BBX 16 16 0 -3
BITMAP
0000
0000
0180
0180
0FF8
198C
3180
3180
3180
3180
198C
0FF8
0180
0180
0000
0000
ENDCHAR

STARTCHAR U+00A3
ENCODING 163
SWIDTH 1000 0
DWIDTH 16 0
BBX 16 16 0 -3
BITMAP
0000
01F0
03F8
071C
060C
1FC0
1FC0
0600
1E00
3F00
3780
3FF8
1CF8
0000
0000
0000
ENDCHAR

STARTCHAR U+00A4
ENCODING 164
SWIDTH 1000 0
DWIDTH 16 0
BBX 16 16 0 -3
BITMAP
0000
0000
0000
0180
05A0
0A50
05A0
1BD8
1BD8
05A0
0A50
05A0
0180
0000
0000
0000
ENDCHAR

STARTCHAR U+00A5
ENCODING 165
SWIDTH 1000 0
DWIDTH 16 0
BBX 16 16 0 -3
BITMAP
0000
300C
381C
1C38
0E70
07E0
1FF8
1FF8
0180
1FF8
1FF8
0180
0180
0000
0000
0000
ENDCHAR

STARTCHAR U+00A6
ENCODING 166
SWIDTH 1000 0
DWIDTH 16 0
BBX 16 16 0 -3
BITMAP
0000
0000
0300
0300
0300
0300
0300
0000
0000
0300
0300
0300
0300
0300
0000
0000
ENDCHAR

STARTCHAR U+00A7
ENCODING 167
SWIDTH 1000 0
DWIDTH 16 0
BBX 16 16 0 -3
BITMAP
0000
07F0
0FF8
1C08
1800
1FE0
17F0
1018
1808
0FE8
07F8
0018
1038
1FF0
0FE0
0000
ENDCHAR

STARTCHAR U+00A8
ENCODING 168
SWIDTH 1000 0
DWIDTH 16 0
BBX 16 16 0 -3
BITMAP
0660
0660
0000
0000
0000
0000
0000
0000
0000
0000
0000
0000
0000
0000
0000
0000
ENDCHAR

STARTCHAR U+00A9
ENCODING 169
SWIDTH 1000 0
DWIDTH 16 0
BBX 16 16 0 -3
BITMAP
0000
0000
0FF0
1818
33CC
366C
360C
360C
360C
366C
33CC
1818
0FF0
0000
0000
0000
ENDCHAR

STARTCHAR U+00AA
ENCODING 170
SWIDTH 1000 0
DWIDTH 16 0
BBX 16 16 0 -3
BITMAP
0000
0000
0FF0
1830
1830
0FFC
0000
1FFC
0000
0000
0000
0000
0000
0000
0000
0000
ENDCHAR

STARTCHAR U+00AB
ENCODING 171
SWIDTH 1000 0
DWIDTH 16 0
BBX 16 16 0 -3
BITMAP
0000
0000
0000
0000
0000
038E
0E38
38E0
0E38
038E
0000
0000
0000
0000
0000
0000
ENDCHAR

STARTCHAR U+00AC
ENCODING 172
SWIDTH 1000 0
DWIDTH 16 0
BBX 16 16 0 -3
BITMAP
0000
0000
0000
0000
0000
0000
0000
3FFC
000C
000C
000C
0000
0000
0000
0000
0000
ENDCHAR

STARTCHAR U+00AE
ENCODING 174
SWIDTH 1000 0
DWIDTH 16 0
BBX 16 16 0 -3
BITMAP
0000
0000
0FF0
1818
37CC
346C
342C
37CC
358C
34CC
346C
1818
0FF0
0000
0000
0000
ENDCHAR

STARTCHAR U+00AF
ENCODING 175
SWIDTH 1000 0
DWIDTH 16 0
BBX 16 16 0 -3
BITMAP
03E0
03E0
0000
0000
0000
0000
0000
0000
0000
0000
0000
0000
0000
0000
0000
0000
ENDCHAR

STARTCHAR U+00B0
ENCODING 176
SWIDTH 1000 0
DWIDTH 16 0
BBX 16 16 0 -3
BITMAP
0000
07E0
0C30
0C30
07E0
0000
0000
0000
0000
0000
0000
0000
0000
0000
0000
0000
ENDCHAR

STARTCHAR U+00B1
ENCODING 177
SWIDTH 1000 0
DWIDTH 16 0
BBX 16 16 0 -3
BITMAP
0000
0180
0180
0180
1FF8
1FF8
0180
0180
0180
0000
1FF8
1FF8
0000
0000
0000
0000
ENDCHAR

STARTCHAR U+00B2
ENCODING 178
SWIDTH 1000 0
DWIDTH 16 0
BBX 16 16 0 -3
BITMAP
0000
07F0
1C18
0038
00E0
0380
0E00
1FF8
0000
0000
0000
0000
0000
0000
0000
0000
ENDCHAR

STARTCHAR U+00B3
ENCODING 179
SWIDTH 1000 0
DWIDTH 16 0
BBX 16 16 0 -3
BITMAP
0000
07F0
1C18
0018
01F0
0018
1C18
07F0
0000
0000
0000
0000
0000
0000
0000
0000
ENDCHAR

STARTCHAR U+00B4
ENCODING 180
SWIDTH 1000 0
DWIDTH 16 0
BBX 16 16 0 -3
BITMAP
00C0
0180
0100
0000
0000
0000
0000
0000
0000
0000
0000
0000
0000
0000
0000
0000
ENDCHAR

STARTCHAR U+00B5
ENCODING 181
SWIDTH 1000 0
DWIDTH 16 0
BBX 16 16 0 -3
BITMAP
0000
0000
0000
0000
0000
0C0C
0C0C
0C0C
0C0C
0C0C
0C0C
0C1C
0FE7
0C00
0C00
3800
ENDCHAR

STARTCHAR U+00B6
ENCODING 182
SWIDTH 1000 0
DWIDTH 16 0
BBX 16 16 0 -3
BITMAP
0000
0000
1FFC
3E30
3E30
3E30
1E30
0630
0630
0630
0630
0630
0630
0000
0000
0000
ENDCHAR

STARTCHAR U+00B7
ENCODING 183
SWIDTH 1000 0
DWIDTH 16 0
BBX 16 16 0 -3
BITMAP
0000
0000
0000
0000
0000
0000
0000
0180
0180
0000
0000
0000
0000
0000
0000
0000
ENDCHAR

STARTCHAR U+00B8
ENCODING 184
SWIDTH 1000 0
DWIDTH 16 0
BBX 16 16 0 -3
BITMAP
0000
0000
0000
0000
0000
0000
0000
0000
0000
0000
0000
0000
0000
00C0
0060
01C0
ENDCHAR

STARTCHAR U+00B9
ENCODING 185
SWIDTH 1000 0
DWIDTH 16 0
BBX 16 16 0 -3
BITMAP
0000
0180
0780
0180
0180
0180
0180
1FF8
0000
0000
0000
0000
0000
0000
0000
0000
ENDCHAR

STARTCHAR U+00BA
ENCODING 186
SWIDTH 1000 0
DWIDTH 16 0
BBX 16 16 0 -3
BITMAP
0000
0000
0FF0
1818
1818
0FF0
0000
1FF8
0000
0000
0000
0000
0000
0000
0000
0000
ENDCHAR

STARTCHAR U+00BB
ENCODING 187
SWIDTH 1000 0
DWIDTH 16 0
BBX 16 16 0 -3
BITMAP
0000
0000
0000
0000
0000
38E0
0E38
038E
0E38
38E0
0000
0000
0000
0000
0000
0000
ENDCHAR

STARTCHAR U+00BC
ENCODING 188
SWIDTH 1000 0
DWIDTH 16 0
BBX 16 16 0 -3
BITMAP
0000
0000
1800
7800
1800
181C
1870
01C0
0700
1C66
7066
007E
0006
0006
0000
0000
ENDCHAR

STARTCHAR U+00BD
ENCODING 189
SWIDTH 1000 0
DWIDTH 16 0
BBX 16 16 0 -3
BITMAP
0000
0000
1800
7800
1800
181C
1870
01C0
0700
1C7C
7006
003C
0060
007E
0000
0000
ENDCHAR

STARTCHAR U+00BE
ENCODING 190
SWIDTH 1000 0
DWIDTH 16 0
BBX 16 16 0 -3
BITMAP
0000
0000
7C00
0600
1E00
061C
7C70
01C0
0700
1C66
7066
007E
0006
0006
0000
0000
ENDCHAR

STARTCHAR U+00BF
ENCODING 191
SWIDTH 1000 0
DWIDTH 16 0
BBX 16 16 0 -3
BITMAP
0000
0000
0180
03C0
0180
0000
0180
00E0
0038
000C
000C
180C
0C18
07F0
0000
0000
ENDCHAR

STARTCHAR U+00C0
ENCODING 192
SWIDTH 1000 0
DWIDTH 16 0
BBX 16 16 0 -3
BITMAP
0180
00C0
0000
0FC0
0360
0360
0630
0630
0FF8
0C18
180C
180C
7E3F
0000
0000
0000
ENDCHAR

STARTCHAR U+00C1
ENCODING 193
SWIDTH 1000 0
DWIDTH 16 0
BBX 16 16 0 -3
BITMAP
00C0
0180
0000
0FC0
0360
0360
0630
0630
0FF8
0C18
180C
180C
7E3F
0000
0000
0000
ENDCHAR

STARTCHAR U+00C2
ENCODING 194
SWIDTH 1000 0
DWIDTH 16 0
BBX 16 16 0 -3
BITMAP
01C0
0360
0000
0FC0
0360
0360
0630
0630
0FF8
0C18
180C
180C
7E3F
0000
0000
0000
ENDCHAR

STARTCHAR U+00C3
ENCODING 195
SWIDTH 1000 0
DWIDTH 16 0
BBX 16 16 0 -3
BITMAP
0360
05C0
0000
0FC0
0360
0360
0630
0630
0FF8
0C18
180C
180C
7E3F
0000
0000
0000
ENDCHAR

STARTCHAR U+00C4
ENCODING 196
SWIDTH 1000 0
DWIDTH 16 0
BBX 16 16 0 -3
BITMAP
0630
0630
0000
0FC0
0360
0360
0630
0630
0FF8
0C18
180C
180C
7E3F
0000
0000
0000
ENDCHAR

STARTCHAR U+00C5
ENCODING 197
SWIDTH 1000 0
DWIDTH 16 0
BBX 16 16 0 -3
BITMAP
03C0
0180
0000
0FC0
0360
0360
0630
0630
0FF8
0C18
180C
180C
7E3F
0000
0000
0000
ENDCHAR

STARTCHAR U+00C6
ENCODING 198
SWIDTH 1000 0
DWIDTH 16 0
BBX 16 16 0 -3
BITMAP
0000
0000
0FFC
03C6
06C0
06C0
0CC0
0FF8
18C0
18C0
30C0
30C6
79FC
0000
0000
0000
ENDCHAR

STARTCHAR U+00C7
ENCODING 199
SWIDTH 1000 0
DWIDTH 16 0
BBX 16 16 0 -3
BITMAP
0000
0000
0FF8
180C
3006
3000
3000
3000
3000
3000
3006
180C
0FF8
00C0
0060
01C0
ENDCHAR

STARTCHAR U+00C8
ENCODING 200
SWIDTH 1000 0
DWIDTH 16 0
BBX 16 16 0 -3
BITMAP
0180
00C0
0000
7FFC
1806
1800
1800
1FF0
1800
1800
1800
1806
7FFC
0000
0000
0000
ENDCHAR

STARTCHAR U+00C9
ENCODING 201
SWIDTH 1000 0
DWIDTH 16 0
BBX 16 16 0 -3
BITMAP
00C0
0180
0000
7FFC
1806
1800
1800
1FF0
1800
1800
1800
1806
7FFC
0000
0000
0000
ENDCHAR

STARTCHAR U+00CA
ENCODING 202
SWIDTH 1000 0
DWIDTH 16 0
BBX 16 16 0 -3
BITMAP
01C0
0360
0000
7FFC
1806
1800
1800
1FF0
1800
1800
1800
1806
7FFC
0000
0000
0000
ENDCHAR

STARTCHAR U+00CB
ENCODING 203
SWIDTH 1000 0
DWIDTH 16 0
BBX 16 16 0 -3
BITMAP
0660
0660
0000
7FFC
1806
1800
1800
1FF0
1800
1800
1800
1806
7FFC
0000
0000
0000
ENDCHAR

STARTCHAR U+00CC
ENCODING 204
SWIDTH 1000 0
DWIDTH 16 0
BBX 16 16 0 -3
BITMAP
0300
0180
0000
3FFC
0180
0180
0180
0180
0180
0180
0180
0180
3FFC
0000
0000
0000
ENDCHAR

STARTCHAR U+00CD
ENCODING 205
SWIDTH 1000 0
DWIDTH 16 0
BBX 16 16 0 -3
BITMAP
00C0
0180
0000
3FFC
0180
0180
0180
0180
0180
0180
0180
0180
3FFC
0000
0000
0000
ENDCHAR

STARTCHAR U+00CE
ENCODING 206
SWIDTH 1000 0
DWIDTH 16 0
BBX 16 16 0 -3
BITMAP
01C0
0360
0000
3FFC
0180
0180
0180
0180
0180
0180
0180
0180
3FFC
0000
0000
0000
ENDCHAR

STARTCHAR U+00CF
ENCODING 207
SWIDTH 1000 0
DWIDTH 16 0
BBX 16 16 0 -3
BITMAP
0660
0660
0000
3FFC
0180
0180
0180
0180
0180
0180
0180
0180
3FFC
0000
0000
0000
ENDCHAR

STARTCHAR U+00D0
ENCODING 208
SWIDTH 1000 0
DWIDTH 16 0
BBX 16 16 0 -3
BITMAP
0000
0000
7FE0
1830
1818
180C
180C
7F8C
180C
180C
1818
1830
7FE0
0000
0000
0000
ENDCHAR

STARTCHAR U+00D1
ENCODING 209
SWIDTH 1000 0
DWIDTH 16 0
BBX 16 16 0 -3
BITMAP
0360
05C0
0000
783F
1C0C
1E0C
1B0C
198C
18CC
186C
183C
181C
7E0C
0000
0000
0000
ENDCHAR

STARTCHAR U+00D2
ENCODING 210
SWIDTH 1000 0
DWIDTH 16 0
BBX 16 16 0 -3
BITMAP
0300
0180
0000
0FF0
1818
300C
300C
300C
300C
300C
300C
1818
0FF0
0000
0000
0000
ENDCHAR

STARTCHAR U+00D3
ENCODING 211
SWIDTH 1000 0
DWIDTH 16 0
BBX 16 16 0 -3
BITMAP
00C0
0180
0000
0FF0
1818
300C
300C
300C
300C
300C
300C
1818
0FF0
0000
0000
0000
ENDCHAR

STARTCHAR U+00D4
ENCODING 212
SWIDTH 1000 0
DWIDTH 16 0
BBX 16 16 0 -3
BITMAP
01C0
0360
0000
0FF0
1818
300C
300C
300C
300C
300C
300C
1818
0FF0
0000
0000
0000
ENDCHAR

STARTCHAR U+00D5
ENCODING 213
SWIDTH 1000 0
DWIDTH 16 0
BBX 16 16 0 -3
BITMAP
0360
05C0
0000
0FF0
1818
300C
300C
300C
300C
300C
300C
1818
0FF0
0000
0000
0000
ENDCHAR

STARTCHAR U+00D6
ENCODING 214
SWIDTH 1000 0
DWIDTH 16 0
BBX 16 16 0 -3
BITMAP
0660
0660
0000
0FF0
1818
300C
300C
300C
300C
300C
300C
1818
0FF0
0000
0000
0000
ENDCHAR

STARTCHAR U+00D7
ENCODING 215
SWIDTH 1000 0
DWIDTH 16 0
BBX 16 16 0 -3
BITMAP
0000
0000
0000
0000
0C30
0E70
07E0
03C0
03C0
07E0
0E70
0C30
0000
0000
0000
0000
ENDCHAR

STARTCHAR U+00D8
ENCODING 216
SWIDTH 1000 0
DWIDTH 16 0
BBX 16 16 0 -3
BITMAP
0000
0000
0FEC
1818
303C
306C
30CC
318C
330C
360C
3C0C
1818
37F0
0000
0000
0000
ENDCHAR

STARTCHAR U+00D9
ENCODING 217
SWIDTH 1000 0
DWIDTH 16 0
BBX 16 16 0 -3
BITMAP
0180
00C0
0000
7C1F
180C
180C
180C
180C
180C
180C
180C
0C18
07F0
0000
0000
0000
ENDCHAR

STARTCHAR U+00DA
ENCODING 218
SWIDTH 1000 0
DWIDTH 16 0
BBX 16 16 0 -3
BITMAP
00C0
0180
0000
7C1F
180C
180C
180C
180C
180C
180C
180C
0C18
07F0
0000
0000
0000
ENDCHAR

STARTCHAR U+00DB
ENCODING 219
SWIDTH 1000 0
DWIDTH 16 0
BBX 16 16 0 -3
BITMAP
01C0
0360
0000
7C1F
180C
180C
180C
180C
180C
180C
180C
0C18
07F0
0000
0000
0000
ENDCHAR

STARTCHAR U+00DC
ENCODING 220
SWIDTH 1000 0
DWIDTH 16 0
BBX 16 16 0 -3
BITMAP
0630
0630
0000
7C1F
180C
180C
180C
180C
180C
180C
180C
0C18
07F0
0000
0000
0000
ENDCHAR

STARTCHAR U+00DD
ENCODING 221
SWIDTH 1000 0
DWIDTH 16 0
BBX 16 16 0 -3
BITMAP
00C0
0180
0000
7C3E
1818
0C30
0660
03C0
0180
0180
0180
0180
07E0
0000
0000
0000
ENDCHAR

STARTCHAR U+00DE
ENCODING 222
SWIDTH 1000 0
DWIDTH 16 0
BBX 16 16 0 -3
BITMAP
0000
1800
1800
1FE0
1FF0
1838
1818
1818
1838
1FF0
1FE0
1800
1800
0000
0000
0000
ENDCHAR

STARTCHAR U+00DF
ENCODING 223
SWIDTH 1000 0
DWIDTH 16 0
BBX 16 16 0 -3
BITMAP
0000
0FF8
1FFC
181C
181C
1838
1870
18E0
1870
1838
181C
187C
19F8
0000
0000
0000
ENDCHAR

STARTCHAR U+00E0
ENCODING 224
SWIDTH 1000 0
DWIDTH 16 0
BBX 16 16 0 -3
BITMAP
0000
0300
0180
0080
0000
1FF8
700C
000C
0FFC
180C
300C
301C
1FE7
0000
0000
0000
ENDCHAR

STARTCHAR U+00E1
ENCODING 225
SWIDTH 1000 0
DWIDTH 16 0
BBX 16 16 0 -3
BITMAP
0000
00C0
0180
0100
0000
1FF8
700C
000C
0FFC
180C
300C
301C
1FE7
0000
0000
0000
ENDCHAR

STARTCHAR U+00E2
ENCODING 226
SWIDTH 1000 0
DWIDTH 16 0
BBX 16 16 0 -3
BITMAP
0000
0080
01C0
0360
0000
1FF8
700C
000C
0FFC
180C
300C
301C
1FE7
0000
0000
0000
ENDCHAR

STARTCHAR U+00E3
ENCODING 227
SWIDTH 1000 0
DWIDTH 16 0
BBX 16 16 0 -3
BITMAP
0000
0000
0360
05C0
0000
1FF8
700C
000C
0FFC
180C
300C
301C
1FE7
0000
0000
0000
ENDCHAR

STARTCHAR U+00E4
ENCODING 228
SWIDTH 1000 0
DWIDTH 16 0
BBX 16 16 0 -3
BITMAP
0000
0000
0660
0660
0000
1FF8
700C
000C
0FFC
180C
300C
301C
1FE7
0000
0000
0000
ENDCHAR

STARTCHAR U+00E5
ENCODING 229
SWIDTH 1000 0
DWIDTH 16 0
BBX 16 16 0 -3
BITMAP
0000
0080
0140
0080
0000
1FF8
700C
000C
0FFC
180C
300C
301C
1FE7
0000
0000
0000
ENDCHAR

STARTCHAR U+00E6
ENCODING 230
SWIDTH 1000 0
DWIDTH 16 0
BBX 16 16 0 -3
BITMAP
0000
0000
0000
0000
0000
3E7C
63C6
0186
1FFC
3180
6180
61C6
3E7C
0000
0000
0000
ENDCHAR

STARTCHAR U+00E7
ENCODING 231
SWIDTH 1000 0
DWIDTH 16 0
BBX 16 16 0 -3
BITMAP
0000
0000
0000
0000
0000
1FF8
300C
6000
6000
6000
6000
3007
1FFC
00C0
0060
01C0
ENDCHAR

STARTCHAR U+00E8
ENCODING 232
SWIDTH 1000 0
DWIDTH 16 0
BBX 16 16 0 -3
BITMAP
0000
0300
0180
0080
0000
1FF8
300C
600C
7FF8
6000
6000
3007
1FFC
0000
0000
0000
ENDCHAR

STARTCHAR U+00E9
ENCODING 233
SWIDTH 1000 0
DWIDTH 16 0
BBX 16 16 0 -3
BITMAP
0000
00C0
0180
0100
0000
1FF8
300C
600C
7FF8
6000
6000
3007
1FFC
0000
0000
0000
ENDCHAR

STARTCHAR U+00EA
ENCODING 234
SWIDTH 1000 0
DWIDTH 16 0
BBX 16 16 0 -3
BITMAP
0000
0080
01C0
0360
0000
1FF8
300C
600C
7FF8
6000
6000
3007
1FFC
0000
0000
0000
ENDCHAR

STARTCHAR U+00EB
ENCODING 235
SWIDTH 1000 0
DWIDTH 16 0
BBX 16 16 0 -3
BITMAP
0000
0000
0660
0660
0000
1FF8
300C
600C
7FF8
6000
6000
3007
1FFC
0000
0000
0000
ENDCHAR

STARTCHAR U+00EC
ENCODING 236
SWIDTH 1000 0
DWIDTH 16 0
BBX 16 16 0 -3
BITMAP
0000
0300
0180
0080
0000
0000
1FC0
00C0
00C0
00C0
00C0
00C0
7FFF
0000
0000
0000
ENDCHAR

STARTCHAR U+00ED
ENCODING 237
SWIDTH 1000 0
DWIDTH 16 0
BBX 16 16 0 -3
BITMAP
0000
0060
00C0
0080
0000
0000
1FC0
00C0
00C0
00C0
00C0
00C0
7FFF
0000
0000
0000
ENDCHAR

STARTCHAR U+00EE
ENCODING 238
SWIDTH 1000 0
DWIDTH 16 0
BBX 16 16 0 -3
BITMAP
0000
0080
01C0
0360
0000
0000
1FC0
00C0
00C0
00C0
00C0
00C0
7FFF
0000
0000
0000
ENDCHAR

STARTCHAR U+00EF
ENCODING 239
SWIDTH 1000 0
DWIDTH 16 0
BBX 16 16 0 -3
BITMAP
0000
0000
0330
0330
0000
0000
1FC0
00C0
00C0
00C0
00C0
00C0
7FFF
0000
0000
0000
ENDCHAR

STARTCHAR U+00F0
ENCODING 240
SWIDTH 1000 0
DWIDTH 16 0
BBX 16 16 0 -3
BITMAP
0000
0360
0180
06C0
0060
0030
0FF8
181C
300C
300C
300C
1818
0FF0
0000
0000
0000
ENDCHAR

STARTCHAR U+00F1
ENCODING 241
SWIDTH 1000 0
DWIDTH 16 0
BBX 16 16 0 -3
BITMAP
0000
0000
01B0
02E0
0000
73F0
1C18
180C
180C
180C
180C
180C
7E0F
0000
0000
0000
ENDCHAR

STARTCHAR U+00F2
ENCODING 242
SWIDTH 1000 0
DWIDTH 16 0
BBX 16 16 0 -3
BITMAP
0000
0300
0180
0080
0000
1FF8
300C
6006
6006
6006
6006
300C
1FF8
0000
0000
0000
ENDCHAR

STARTCHAR U+00F3
ENCODING 243
SWIDTH 1000 0
DWIDTH 16 0
BBX 16 16 0 -3
BITMAP
0000
00C0
0180
0100
0000
1FF8
300C
6006
6006
6006
6006
300C
1FF8
0000
0000
0000
ENDCHAR

STARTCHAR U+00F4
ENCODING 244
SWIDTH 1000 0
DWIDTH 16 0
BBX 16 16 0 -3
BITMAP
0000
0080
01C0
0360
0000
1FF8
300C
6006
6006
6006
6006
300C
1FF8
0000
0000
0000
ENDCHAR

STARTCHAR U+00F5
ENCODING 245
SWIDTH 1000 0
DWIDTH 16 0
BBX 16 16 0 -3
BITMAP
0000
0000
0360
05C0
0000
1FF8
300C
6006
6006
6006
6006
300C
1FF8
0000
0000
0000
ENDCHAR

STARTCHAR U+00F6
ENCODING 246
SWIDTH 1000 0
DWIDTH 16 0
BBX 16 16 0 -3
BITMAP
0000
0000
0660
0660
0000
1FF8
300C
6006
6006
6006
6006
300C
1FF8
0000
0000
0000
ENDCHAR

STARTCHAR U+00F7
ENCODING 247
SWIDTH 1000 0
DWIDTH 16 0
BBX 16 16 0 -3
BITMAP
0000
0000
0000
0000
0180
0180
0000
1FF8
1FF8
0000
0180
0180
0000
0000
0000
0000
ENDCHAR

STARTCHAR U+00F8
ENCODING 248
SWIDTH 1000 0
DWIDTH 16 0
BBX 16 16 0 -3
BITMAP
0000
0000
0000
0000
0000
0FFA
180E
303C
30E6
3386
1E06
380C
2FF8
0000
0000
0000
ENDCHAR

STARTCHAR U+00F9
ENCODING 249
SWIDTH 1000 0
DWIDTH 16 0
BBX 16 16 0 -3
BITMAP
0000
0300
0180
0080
0000
783C
180C
180C
180C
180C
180C
181C
0FE7
0000
0000
0000
ENDCHAR

STARTCHAR U+00FA
ENCODING 250
SWIDTH 1000 0
DWIDTH 16 0
BBX 16 16 0 -3
BITMAP
0000
00C0
0180
0100
0000
783C
180C
180C
180C
180C
180C
181C
0FE7
0000
0000
0000
ENDCHAR

STARTCHAR U+00FB
ENCODING 251
SWIDTH 1000 0
DWIDTH 16 0
BBX 16 16 0 -3
BITMAP
0000
0080
01C0
0360
0000
783C
180C
180C
180C
180C
180C
181C
0FE7
0000
0000
0000
ENDCHAR

STARTCHAR U+00FC
ENCODING 252
SWIDTH 1000 0
DWIDTH 16 0
BBX 16 16 0 -3
BITMAP
0000
0000
0660
0660
0000
783C
180C
180C
180C
180C
180C
181C
0FE7
0000
0000
0000
ENDCHAR

STARTCHAR U+00FD
ENCODING 253
SWIDTH 1000 0
DWIDTH 16 0
BBX 16 16 0 -3
BITMAP
0000
00C0
0180
0100
0000
783F
180C
180C
180C
180C
0FFC
000C
700C
1FF8
0000
0000
ENDCHAR

STARTCHAR U+00FE
ENCODING 254
SWIDTH 1000 0
DWIDTH 16 0
BBX 16 16 0 -3
BITMAP
0000
0000
0000
1800
1800
1800
1FE0
1FF8
1818
1818
1FF8
1FE0
1800
1800
1800
0000
ENDCHAR

STARTCHAR U+00FF
ENCODING 255
SWIDTH 1000 0
DWIDTH 16 0
BBX 16 16 0 -3
BITMAP
0000
0000
0660
0660
0000
783F
180C
180C
180C
180C
0FFC
000C
700C
1FF8
0000
0000
ENDCHAR

STARTCHAR U+0100
ENCODING 256
SWIDTH 1000 0
DWIDTH 16 0
BBX 16 16 0 -3
BITMAP
03E0
03E0
0000
0FC0
0360
0360
0630
0630
0FF8
0C18
180C
180C
7E3F
0000
0000
0000
ENDCHAR

STARTCHAR U+0101
ENCODING 257
SWIDTH 1000 0
DWIDTH 16 0
BBX 16 16 0 -3
BITMAP
0000
0000
03E0
03E0
0000
1FF8
700C
000C
0FFC
180C
300C
301C
1FE7
0000
0000
0000
ENDCHAR

STARTCHAR U+0102
ENCODING 258
SWIDTH 1000 0
DWIDTH 16 0
BBX 16 16 0 -3
BITMAP
0220
01C0
0000
0FC0
0360
0360
0630
0630
0FF8
0C18
180C
180C
7E3F
0000
0000
0000
ENDCHAR

STARTCHAR U+0103
ENCODING 259
SWIDTH 1000 0
DWIDTH 16 0
BBX 16 16 0 -3
BITMAP
0000
0220
01C0
0000
0000
1FF8
700C
000C
0FFC
180C
300C
301C
1FE7
0000
0000
0000
ENDCHAR

STARTCHAR U+0104
ENCODING 260
SWIDTH 1000 0
DWIDTH 16 0
BBX 16 16 0 -3
BITMAP
0000
0000
0FC0
01C0
0360
0360
0630
0630
0FF8
0C18
180C
180C
7E3F
000C
0018
000E
ENDCHAR

STARTCHAR U+0105
ENCODING 261
SWIDTH 1000 0
DWIDTH 16 0
BBX 16 16 0 -3
BITMAP
0000
0000
0000
0000
0000
1FF8
700C
000C
0FFC
180C
300C
301C
1FE7
000C
0018
000E
ENDCHAR

STARTCHAR U+0106
ENCODING 262
SWIDTH 1000 0
DWIDTH 16 0
BBX 16 16 0 -3
BITMAP
00C0
0180
0000
0FF8
180C
3006
3000
3000
3000
3000
3006
180C
0FF8
0000
0000
0000
ENDCHAR

STARTCHAR U+0107
ENCODING 263
SWIDTH 1000 0
DWIDTH 16 0
BBX 16 16 0 -3
BITMAP
0000
00C0
0180
0100
0000
1FF8
300C
6000
6000
6000
6000
3007
1FFC
0000
0000
0000
ENDCHAR

STARTCHAR U+0108
ENCODING 264
SWIDTH 1000 0
DWIDTH 16 0
BBX 16 16 0 -3
BITMAP
01C0
0360
0000
0FF8
180C
3006
3000
3000
3000
3000
3006
180C
0FF8
0000
0000
0000
ENDCHAR

STARTCHAR U+0109
ENCODING 265
SWIDTH 1000 0
DWIDTH 16 0
BBX 16 16 0 -3
BITMAP
0000
0080
01C0
0360
0000
1FF8
300C
6000
6000
6000
6000
3007
1FFC
0000
0000
0000
ENDCHAR

STARTCHAR U+010A
ENCODING 266
SWIDTH 1000 0
DWIDTH 16 0
BBX 16 16 0 -3
BITMAP
0180
0180
0000
0FF8
180C
3006
3000
3000
3000
3000
3006
180C
0FF8
0000
0000
0000
ENDCHAR

STARTCHAR U+010B
ENCODING 267
SWIDTH 1000 0
DWIDTH 16 0
BBX 16 16 0 -3
BITMAP
0000
0000
0180
0180
0000
1FF8
300C
6000
6000
6000
6000
3007
1FFC
0000
0000
0000
ENDCHAR

STARTCHAR U+010C
ENCODING 268
SWIDTH 1000 0
DWIDTH 16 0
BBX 16 16 0 -3
BITMAP
0360
01C0
0000
0FF8
180C
3006
3000
3000
3000
3000
3006
180C
0FF8
0000
0000
0000
ENDCHAR

STARTCHAR U+010D
ENCODING 269
SWIDTH 1000 0
DWIDTH 16 0
BBX 16 16 0 -3
BITMAP
0000
0360
01C0
0080
0000
1FF8
300C
6000
6000
6000
6000
3007
1FFC
0000
0000
0000
ENDCHAR

STARTCHAR U+010E
ENCODING 270
SWIDTH 1000 0
DWIDTH 16 0
BBX 16 16 0 -3
BITMAP
06C0
0380
0000
7FE0
1830
1818
180C
180C
180C
180C
1818
1830
7FE0
0000
0000
0000
ENDCHAR

STARTCHAR U+010F
ENCODING 271
SWIDTH 1000 0
DWIDTH 16 0
BBX 16 16 0 -3
BITMAP
0000
0001
007B
001A
0018
0018
1FF8
3018
6018
6018
6018
6038
3FCE
0000
0000
0000
ENDCHAR

STARTCHAR U+0110
ENCODING 272
SWIDTH 1000 0
DWIDTH 16 0
BBX 16 16 0 -3
BITMAP
0000
0000
7FE0
1830
1818
180C
180C
7F8C
180C
180C
1818
1830
7FE0
0000
0000
0000
ENDCHAR

STARTCHAR U+0111
ENCODING 273
SWIDTH 1000 0
DWIDTH 16 0
BBX 16 16 0 -3
BITMAP
0000
0000
003C
000C
00FF
000C
0FFC
180C
300C
300C
300C
301C
1FE7
0000
0000
0000
ENDCHAR

STARTCHAR U+0112
ENCODING 274
SWIDTH 1000 0
DWIDTH 16 0
BBX 16 16 0 -3
BITMAP
03E0
03E0
0000
7FFC
1806
1800
1800
1FF0
1800
1800
1800
1806
7FFC
0000
0000
0000
ENDCHAR

STARTCHAR U+0113
ENCODING 275
SWIDTH 1000 0
DWIDTH 16 0
BBX 16 16 0 -3
BITMAP
0000
0000
03E0
03E0
0000
1FF8
300C
600C
7FF8
6000
6000
3007
1FFC
0000
0000
0000
ENDCHAR

STARTCHAR U+0114
ENCODING 276
SWIDTH 1000 0
DWIDTH 16 0
BBX 16 16 0 -3
BITMAP
0220
01C0
0000
7FFC
1806
1800
1800
1FF0
1800
1800
1800
1806
7FFC
0000
0000
0000
ENDCHAR

STARTCHAR U+0115
ENCODING 277
SWIDTH 1000 0
DWIDTH 16 0
BBX 16 16 0 -3
BITMAP
0000
0220
01C0
0000
0000
1FF8
300C
600C
7FF8
6000
6000
3007
1FFC
0000
0000
0000
ENDCHAR

STARTCHAR U+0116
ENCODING 278
SWIDTH 1000 0
DWIDTH 16 0
BBX 16 16 0 -3
BITMAP
0180
0180
0000
7FFC
1806
1800
1800
1FF0
1800
1800
1800
1806
7FFC
0000
0000
0000
ENDCHAR

STARTCHAR U+0117
ENCODING 279
SWIDTH 1000 0
DWIDTH 16 0
BBX 16 16 0 -3
BITMAP
0000
0000
0180
0180
0000
1FF8
300C
600C
7FF8
6000
6000
3007
1FFC
0000
0000
0000
ENDCHAR

STARTCHAR U+0118
ENCODING 280
SWIDTH 1000 0
DWIDTH 16 0
BBX 16 16 0 -3
BITMAP
0000
0000
7FFC
1806
1800
1800
1800
1FF0
1800
1800
1800
1806
7FFC
00C0
0180
00E0
ENDCHAR

STARTCHAR U+0119
ENCODING 281
SWIDTH 1000 0
DWIDTH 16 0
BBX 16 16 0 -3
BITMAP
0000
0000
0000
0000
0000
1FF8
300C
600C
7FF8
6000
6000
3007
1FFC
00C0
0180
00E0
ENDCHAR

STARTCHAR U+011A
ENCODING 282
SWIDTH 1000 0
DWIDTH 16 0
BBX 16 16 0 -3
BITMAP
0360
01C0
0000
7FFC
1806
1800
1800
1FF0
1800
1800
1800
1806
7FFC
0000
0000
0000
ENDCHAR

STARTCHAR U+011B
ENCODING 283
SWIDTH 1000 0
DWIDTH 16 0
BBX 16 16 0 -3
BITMAP
0000
0360
01C0
0080
0000
1FF8
300C
600C
7FF8
6000
6000
3007
1FFC
0000
0000
0000
ENDCHAR

STARTCHAR U+011C
ENCODING 284
SWIDTH 1000 0
DWIDTH 16 0
BBX 16 16 0 -3
BITMAP
01C0
0360
0000
0FF0
1818
300C
3000
3000
30FF
300C
300C
1818
0FF0
0000
0000
0000
ENDCHAR

STARTCHAR U+011D
ENCODING 285
SWIDTH 1000 0
DWIDTH 16 0
BBX 16 16 0 -3
BITMAP
0000
0080
01C0
0360
0000
0FE7
181C
300C
300C
180C
0FFC
000C
700C
1FF8
0000
0000
ENDCHAR

STARTCHAR U+011E
ENCODING 286
SWIDTH 1000 0
DWIDTH 16 0
BBX 16 16 0 -3
BITMAP
0220
01C0
0000
0FF0
1818
300C
3000
3000
30FF
300C
300C
1818
0FF0
0000
0000
0000
ENDCHAR

STARTCHAR U+011F
ENCODING 287
SWIDTH 1000 0
DWIDTH 16 0
BBX 16 16 0 -3
BITMAP
0000
0220
01C0
0000
0000
0FE7
181C
300C
300C
180C
0FFC
000C
700C
1FF8
0000
0000
ENDCHAR

STARTCHAR U+0120
ENCODING 288
SWIDTH 1000 0
DWIDTH 16 0
BBX 16 16 0 -3
BITMAP
0180
0180
0000
0FF0
1818
300C
3000
3000
30FF
300C
300C
1818
0FF0
0000
0000
0000
ENDCHAR

STARTCHAR U+0121
ENCODING 289
SWIDTH 1000 0
DWIDTH 16 0
BBX 16 16 0 -3
BITMAP
0000
0180
0180
0000
0000
0FE7
181C
300C
300C
180C
0FFC
000C
700C
1FF8
0000
0000
ENDCHAR

STARTCHAR U+0122
ENCODING 290
SWIDTH 1000 0
DWIDTH 16 0
BBX 16 16 0 -3
BITMAP
0000
0000
0FF0
1818
300C
3000
3000
3000
30FF
300C
300C
1818
0FF0
0180
00C0
0380
ENDCHAR

STARTCHAR U+0123
ENCODING 291
SWIDTH 1000 0
DWIDTH 16 0
BBX 16 16 0 -3
BITMAP
0000
00C0
0180
0180
0000
0FE7
181C
300C
300C
180C
0FFC
000C
700C
1FF8
0000
0000
ENDCHAR

STARTCHAR U+0124
ENCODING 292
SWIDTH 1000 0
DWIDTH 16 0
BBX 16 16 0 -3
BITMAP
01C0
0360
0000
7C1F
180C
180C
180C
1FFC
180C
180C
180C
180C
7C1F
0000
0000
0000
ENDCHAR

STARTCHAR U+0125
ENCODING 293
SWIDTH 1000 0
DWIDTH 16 0
BBX 16 16 0 -3
BITMAP
0700
0D80
0000
7800
1800
1800
1FF8
180C
180C
180C
180C
180C
7E0F
0000
0000
0000
ENDCHAR

STARTCHAR U+0126
ENCODING 294
SWIDTH 1000 0
DWIDTH 16 0
BBX 16 16 0 -3
BITMAP
0000
0000
7C1F
180C
3FFE
180C
180C
1FFC
180C
180C
180C
180C
7C1F
0000
0000
0000
ENDCHAR

STARTCHAR U+0127
ENCODING 295
SWIDTH 1000 0
DWIDTH 16 0
BBX 16 16 0 -3
BITMAP
0000
0000
7800
1800
7F80
1800
1FF8
180C
180C
180C
180C
180C
7E0F
0000
0000
0000
ENDCHAR

STARTCHAR U+0128
ENCODING 296
SWIDTH 1000 0
DWIDTH 16 0
BBX 16 16 0 -3
BITMAP
0360
05C0
0000
3FFC
0180
0180
0180
0180
0180
0180
0180
0180
3FFC
0000
0000
0000
ENDCHAR

STARTCHAR U+0129
ENCODING 297
SWIDTH 1000 0
DWIDTH 16 0
BBX 16 16 0 -3
BITMAP
0000
0000
0360
05C0
0000
0000
1FC0
00C0
00C0
00C0
00C0
00C0
7FFF
0000
0000
0000
ENDCHAR

STARTCHAR U+012A
ENCODING 298
SWIDTH 1000 0
DWIDTH 16 0
BBX 16 16 0 -3
BITMAP
07C0
07C0
0000
3FFC
0180
0180
0180
0180
0180
0180
0180
0180
3FFC
0000
0000
0000
ENDCHAR

STARTCHAR U+012B
ENCODING 299
SWIDTH 1000 0
DWIDTH 16 0
BBX 16 16 0 -3
BITMAP
0000
0000
03E0
03E0
0000
0000
1FC0
00C0
00C0
00C0
00C0
00C0
7FFF
0000
0000
0000
ENDCHAR

STARTCHAR U+012C
ENCODING 300
SWIDTH 1000 0
DWIDTH 16 0
BBX 16 16 0 -3
BITMAP
0440
0380
0000
3FFC
0180
0180
0180
0180
0180
0180
0180
0180
3FFC
0000
0000
0000
ENDCHAR

STARTCHAR U+012D
ENCODING 301
SWIDTH 1000 0
DWIDTH 16 0
BBX 16 16 0 -3
BITMAP
0000
0220
01C0
0000
0000
0000
1FC0
00C0
00C0
00C0
00C0
00C0
7FFF
0000
0000
0000
ENDCHAR

STARTCHAR U+012E
ENCODING 302
SWIDTH 1000 0
DWIDTH 16 0
BBX 16 16 0 -3
BITMAP
0000
0000
3FFC
0180
0180
0180
0180
0180
0180
0180
0180
0180
3FFC
0180
0300
01C0
ENDCHAR

STARTCHAR U+012F
ENCODING 303
SWIDTH 1000 0
DWIDTH 16 0
BBX 16 16 0 -3
BITMAP
0000
0000
00C0
00C0
0000
0000
1FC0
00C0
00C0
00C0
00C0
00C0
7FFF
00C0
0180
00E0
ENDCHAR

STARTCHAR U+0130
ENCODING 304
SWIDTH 1000 0
DWIDTH 16 0
BBX 16 16 0 -3
BITMAP
0180
0180
0000
3FFC
0180
0180
0180
0180
0180
0180
0180
0180
3FFC
0000
0000
0000
ENDCHAR

STARTCHAR U+0131
ENCODING 305
SWIDTH 1000 0
DWIDTH 16 0
BBX 16 16 0 -3
BITMAP
0000
0000
0000
0000
0000
0000
1FC0
00C0
00C0
00C0
00C0
00C0
7FFF
0000
0000
0000
ENDCHAR

STARTCHAR U+0134
ENCODING 308
SWIDTH 1000 0
DWIDTH 16 0
BBX 16 16 0 -3
BITMAP
001C
0036
0000
003F
000C
000C
000C
000C
000C
000C
000C
7018
1FF0
0000
0000
0000
ENDCHAR

STARTCHAR U+0135
ENCODING 309
SWIDTH 1000 0
DWIDTH 16 0
BBX 16 16 0 -3
BITMAP
0000
0008
001C
0036
0000
0000
03FC
000C
000C
000C
000C
000C
700C
1FF8
0000
0000
ENDCHAR

STARTCHAR U+0136
ENCODING 310
SWIDTH 1000 0
DWIDTH 16 0
BBX 16 16 0 -3
BITMAP
0000
0000
7C3E
1818
1830
1860
18C0
1FC0
1860
1830
1818
180C
7C1F
0180
0180
0700
ENDCHAR

STARTCHAR U+0137
ENCODING 311
SWIDTH 1000 0
DWIDTH 16 0
BBX 16 16 0 -3
BITMAP
0000
0000
7800
1800
1800
181E
1830
1860
18C0
1FE0
1830
1818
7E3F
0180
0180
0700
ENDCHAR

STARTCHAR U+0138
ENCODING 312
SWIDTH 1000 0
DWIDTH 16 0
BBX 16 16 0 -3
BITMAP
0000
0000
0000
0000
0000
781E
1830
1860
18C0
1FE0
1830
1818
7E3F
0000
0000
0000
ENDCHAR

STARTCHAR U+0139
ENCODING 313
SWIDTH 1000 0
DWIDTH 16 0
BBX 16 16 0 -3
BITMAP
0600
0C00
0000
7E00
1800
1800
1800
1800
1800
1800
1800
1803
7FFE
0000
0000
0000
ENDCHAR

STARTCHAR U+013A
ENCODING 314
SWIDTH 1000 0
DWIDTH 16 0
BBX 16 16 0 -3
BITMAP
0180
0300
0000
FE00
0600
0600
0600
0600
0600
0600
0600
0607
01FC
0000
0000
0000
ENDCHAR

STARTCHAR U+013B
ENCODING 315
SWIDTH 1000 0
DWIDTH 16 0
BBX 16 16 0 -3
BITMAP
0000
0000
7E00
1800
1800
1800
1800
1800
1800
1800
1800
1803
7FFE
00C0
0060
01C0
ENDCHAR

STARTCHAR U+013C
ENCODING 316
SWIDTH 1000 0
DWIDTH 16 0
BBX 16 16 0 -3
BITMAP
0000
0000
0000
FE00
0600
0600
0600
0600
0600
0600
0600
0607
01FC
00C0
0060
01C0
ENDCHAR

STARTCHAR U+013D
ENCODING 317
SWIDTH 1000 0
DWIDTH 16 0
BBX 16 16 0 -3
BITMAP
0020
0060
7E40
1800
1800
1800
1800
1800
1800
1800
1800
1803
7FFE
0000
0000
0000
ENDCHAR

STARTCHAR U+013E
ENCODING 318
SWIDTH 1000 0
DWIDTH 16 0
BBX 16 16 0 -3
BITMAP
0000
0020
0060
FE40
0600
0600
0600
0600
0600
0600
0600
0607
01FC
0000
0000
0000
ENDCHAR

STARTCHAR U+013F
ENCODING 319
SWIDTH 1000 0
DWIDTH 16 0
BBX 16 16 0 -3
BITMAP
0000
0000
7E00
1800
1800
1800
18C0
18C0
1800
1800
1800
1803
7FFE
0000
0000
0000
ENDCHAR

STARTCHAR U+0140
ENCODING 320
SWIDTH 1000 0
DWIDTH 16 0
BBX 16 16 0 -3
BITMAP
0000
0000
0000
FE00
0600
0600
0630
0630
0600
0600
0600
0607
01FC
0000
0000
0000
ENDCHAR

STARTCHAR U+0141
ENCODING 321
SWIDTH 1000 0
DWIDTH 16 0
BBX 16 16 0 -3
BITMAP
0000
0000
7E00
1800
1800
18C0
1B80
1E00
3800
7800
1800
1803
7FFE
0000
0000
0000
ENDCHAR

STARTCHAR U+0142
ENCODING 322
SWIDTH 1000 0
DWIDTH 16 0
BBX 16 16 0 -3
BITMAP
0000
0000
0000
FE00
0600
0600
06C0
0780
0E00
1E00
0600
0607
01FC
0000
0000
0000
ENDCHAR

STARTCHAR U+0143
ENCODING 323
SWIDTH 1000 0
DWIDTH 16 0
BBX 16 16 0 -3
BITMAP
00C0
0180
0000
783F
1C0C
1E0C
1B0C
198C
18CC
186C
183C
181C
7E0C
0000
0000
0000
ENDCHAR

STARTCHAR U+0144
ENCODING 324
SWIDTH 1000 0
DWIDTH 16 0
BBX 16 16 0 -3
BITMAP
0000
0060
00C0
0080
0000
73F0
1C18
180C
180C
180C
180C
180C
7E0F
0000
0000
0000
ENDCHAR

STARTCHAR U+0145
ENCODING 325
SWIDTH 1000 0
DWIDTH 16 0
BBX 16 16 0 -3
BITMAP
0000
0000
783F
180C
1C0C
1E0C
1B0C
198C
18CC
186C
183C
181C
7E0C
0018
000C
0038
ENDCHAR

STARTCHAR U+0146
ENCODING 326
SWIDTH 1000 0
DWIDTH 16 0
BBX 16 16 0 -3
BITMAP
0000
0000
0000
0000
0000
73F0
1C18
180C
180C
180C
180C
180C
7E0F
0018
000C
0038
ENDCHAR

STARTCHAR U+0147
ENCODING 327
SWIDTH 1000 0
DWIDTH 16 0
BBX 16 16 0 -3
BITMAP
0360
01C0
0000
783F
1C0C
1E0C
1B0C
198C
18CC
186C
183C
181C
7E0C
0000
0000
0000
ENDCHAR

STARTCHAR U+0148
ENCODING 328
SWIDTH 1000 0
DWIDTH 16 0
BBX 16 16 0 -3
BITMAP
0000
0360
01C0
0080
0000
73F0
1C18
180C
180C
180C
180C
180C
7E0F
0000
0000
0000
ENDCHAR

STARTCHAR U+0149
ENCODING 329
SWIDTH 1000 0
DWIDTH 16 0
BBX 16 16 0 -3
BITMAP
3000
7800
3000
6000
0000
73F0
1C18
180C
180C
180C
180C
180C
7E0F
0000
0000
0000
ENDCHAR

STARTCHAR U+014A
ENCODING 330
SWIDTH 1000 0
DWIDTH 16 0
BBX 16 16 0 -3
BITMAP
0000
0000
783F
180C
1C0C
1E0C
1B0C
198C
18CC
186C
183C
181C
7E0C
0018
0070
0000
ENDCHAR

STARTCHAR U+014B
ENCODING 331
SWIDTH 1000 0
DWIDTH 16 0
BBX 16 16 0 -3
BITMAP
0000
0000
0000
0000
0000
73F0
1C18
180C
180C
180C
180C
180C
7E0F
0018
0070
0000
ENDCHAR

STARTCHAR U+014C
ENCODING 332
SWIDTH 1000 0
DWIDTH 16 0
BBX 16 16 0 -3
BITMAP
03E0
03E0
0000
0FF0
1818
300C
300C
300C
300C
300C
300C
1818
0FF0
0000
0000
0000
ENDCHAR

STARTCHAR U+014D
ENCODING 333
SWIDTH 1000 0
DWIDTH 16 0
BBX 16 16 0 -3
BITMAP
0000
0000
03E0
03E0
0000
1FF8
300C
6006
6006
6006
6006
300C
1FF8
0000
0000
0000
ENDCHAR

STARTCHAR U+014E
ENCODING 334
SWIDTH 1000 0
DWIDTH 16 0
BBX 16 16 0 -3
BITMAP
0220
01C0
0000
0FF0
1818
300C
300C
300C
300C
300C
300C
1818
0FF0
0000
0000
0000
ENDCHAR

STARTCHAR U+014F
ENCODING 335
SWIDTH 1000 0
DWIDTH 16 0
BBX 16 16 0 -3
BITMAP
0000
0220
01C0
0000
0000
1FF8
300C
6006
6006
6006
6006
300C
1FF8
0000
0000
0000
ENDCHAR

STARTCHAR U+0150
ENCODING 336
SWIDTH 1000 0
DWIDTH 16 0
BBX 16 16 0 -3
BITMAP
0360
06C0
0000
0FF0
1818
300C
300C
300C
300C
300C
300C
1818
0FF0
0000
0000
0000
ENDCHAR

STARTCHAR U+0151
ENCODING 337
SWIDTH 1000 0
DWIDTH 16 0
BBX 16 16 0 -3
BITMAP
0000
0330
0660
0440
0000
1FF8
300C
6006
6006
6006
6006
300C
1FF8
0000
0000
0000
ENDCHAR

STARTCHAR U+0152
ENCODING 338
SWIDTH 1000 0
DWIDTH 16 0
BBX 16 16 0 -3
BITMAP
0000
0000
0FFC
18C6
30C0
30C0
30C0
30F8
30C0
30C0
30C0
18C6
0FFC
0000
0000
0000
ENDCHAR

STARTCHAR U+0153
ENCODING 339
SWIDTH 1000 0
DWIDTH 16 0
BBX 16 16 0 -3
BITMAP
0000
0000
0000
0000
0000
1E7C
33C6
6186
61FC
6180
6180
33C6
1E7C
0000
0000
0000
ENDCHAR

STARTCHAR U+0154
ENCODING 340
SWIDTH 1000 0
DWIDTH 16 0
BBX 16 16 0 -3
BITMAP
00C0
0180
0000
7FF0
1818
180C
180C
1FF8
18C0
1860
1830
1818
7C3F
0000
0000
0000
ENDCHAR

STARTCHAR U+0155
ENCODING 341
SWIDTH 1000 0
DWIDTH 16 0
BBX 16 16 0 -3
BITMAP
0000
0030
0060
0040
0000
79FC
0E07
0C00
0C00
0C00
0C00
0C00
7F80
0000
0000
0000
ENDCHAR

STARTCHAR U+0156
ENCODING 342
SWIDTH 1000 0
DWIDTH 16 0
BBX 16 16 0 -3
BITMAP
0000
0000
7FF0
1818
180C
180C
1818
1FF0
18C0
1860
1830
1818
7C3F
0180
0180
0700
ENDCHAR

STARTCHAR U+0157
ENCODING 343
SWIDTH 1000 0
DWIDTH 16 0
BBX 16 16 0 -3
BITMAP
0000
0000
0000
0000
0000
79FC
0E07
0C00
0C00
0C00
0C00
0C00
7F80
0C00
0600
1C00
ENDCHAR

STARTCHAR U+0158
ENCODING 344
SWIDTH 1000 0
DWIDTH 16 0
BBX 16 16 0 -3
BITMAP
0360
01C0
0000
7FF0
1818
180C
180C
1FF8
18C0
1860
1830
1818
7C3F
0000
0000
0000
ENDCHAR

STARTCHAR U+0159
ENCODING 345
SWIDTH 1000 0
DWIDTH 16 0
BBX 16 16 0 -3
BITMAP
0000
01B0
00E0
0040
0000
79FC
0E07
0C00
0C00
0C00
0C00
0C00
7F80
0000
0000
0000
ENDCHAR

STARTCHAR U+015A
ENCODING 346
SWIDTH 1000 0
DWIDTH 16 0
BBX 16 16 0 -3
BITMAP
00C0
0180
0000
0FF8
180C
3000
3000
1FF8
001C
000E
000E
301C
1FF0
0000
0000
0000
ENDCHAR

STARTCHAR U+015B
ENCODING 347
SWIDTH 1000 0
DWIDTH 16 0
BBX 16 16 0 -3
BITMAP
0000
0060
00C0
0080
0000
0FFC
3807
3800
0FF8
000C
0006
7006
1FFC
0000
0000
0000
ENDCHAR

STARTCHAR U+015C
ENCODING 348
SWIDTH 1000 0
DWIDTH 16 0
BBX 16 16 0 -3
BITMAP
01C0
0360
0000
0FF8
180C
3000
3000
1FF8
001C
000E
000E
301C
1FF0
0000
0000
0000
ENDCHAR

STARTCHAR U+015D
ENCODING 349
SWIDTH 1000 0
DWIDTH 16 0
BBX 16 16 0 -3
BITMAP
0000
0040
00E0
01B0
0000
0FFC
3807
3800
0FF8
000C
0006
7006
1FFC
0000
0000
0000
ENDCHAR

STARTCHAR U+015E
ENCODING 350
SWIDTH 1000 0
DWIDTH 16 0
BBX 16 16 0 -3
BITMAP
0000
0000
0FF8
1C0C
3800
3800
1C00
0FF8
001C
000E
000E
301C
1FF0
0180
00C0
0380
ENDCHAR

STARTCHAR U+015F
ENCODING 351
SWIDTH 1000 0
DWIDTH 16 0
BBX 16 16 0 -3
BITMAP
0000
0000
0000
0000
0000
0FFC
3807
3800
0FF8
000C
0006
7006
1FFC
00C0
0060
01C0
ENDCHAR

STARTCHAR U+0160
ENCODING 352
SWIDTH 1000 0
DWIDTH 16 0
BBX 16 16 0 -3
BITMAP
0360
01C0
0000
0FF8
180C
3000
3000
1FF8
001C
000E
000E
301C
1FF0
0000
0000
0000
ENDCHAR

STARTCHAR U+0161
ENCODING 353
SWIDTH 1000 0
DWIDTH 16 0
BBX 16 16 0 -3
BITMAP
0000
0360
01C0
0080
0000
0FFC
3807
3800
0FF8
000C
0006
7006
1FFC
0000
0000
0000
ENDCHAR

STARTCHAR U+0162
ENCODING 354
SWIDTH 1000 0
DWIDTH 16 0
BBX 16 16 0 -3
BITMAP
0000
0000
3FFC
6186
0180
0180
0180
0180
0180
0180
0180
0180
07E0
0180
00C0
0380
ENDCHAR

STARTCHAR U+0163
ENCODING 355
SWIDTH 1000 0
DWIDTH 16 0
BBX 16 16 0 -3
BITMAP
0000
0000
0000
0600
0600
0600
7FF8
0600
0600
0600
0600
0607
01FC
0060
0030
00E0
ENDCHAR

STARTCHAR U+0164
ENCODING 356
SWIDTH 1000 0
DWIDTH 16 0
BBX 16 16 0 -3
BITMAP
0360
01C0
0000
3FFC
6186
0180
0180
0180
0180
0180
0180
0180
07E0
0000
0000
0000
ENDCHAR

STARTCHAR U+0165
ENCODING 357
SWIDTH 1000 0
DWIDTH 16 0
BBX 16 16 0 -3
BITMAP
0000
0020
0060
0640
0600
0600
7FF8
0600
0600
0600
0600
0607
01FC
0000
0000
0000
ENDCHAR

STARTCHAR U+0166
ENCODING 358
SWIDTH 1000 0
DWIDTH 16 0
BBX 16 16 0 -3
BITMAP
0000
0000
3FFC
6186
0180
0180
0FF0
0180
0180
0180
0180
0180
07E0
0000
0000
0000
ENDCHAR

STARTCHAR U+0167
ENCODING 359
SWIDTH 1000 0
DWIDTH 16 0
BBX 16 16 0 -3
BITMAP
0000
0000
0000
0600
0600
0600
7FF8
0600
0600
1FE0
0600
0607
01FC
0000
0000
0000
ENDCHAR

STARTCHAR U+0168
ENCODING 360
SWIDTH 1000 0
DWIDTH 16 0
BBX 16 16 0 -3
BITMAP
01B0
02E0
0000
7C1F
180C
180C
180C
180C
180C
180C
180C
0C18
07F0
0000
0000
0000
ENDCHAR

STARTCHAR U+0169
ENCODING 361
SWIDTH 1000 0
DWIDTH 16 0
BBX 16 16 0 -3
BITMAP
0000
0000
0360
05C0
0000
783C
180C
180C
180C
180C
180C
181C
0FE7
0000
0000
0000
ENDCHAR

STARTCHAR U+016A
ENCODING 362
SWIDTH 1000 0
DWIDTH 16 0
BBX 16 16 0 -3
BITMAP
03E0
03E0
0000
7C1F
180C
180C
180C
180C
180C
180C
180C
0C18
07F0
0000
0000
0000
ENDCHAR

STARTCHAR U+016B
ENCODING 363
SWIDTH 1000 0
DWIDTH 16 0
BBX 16 16 0 -3
BITMAP
0000
0000
03E0
03E0
0000
783C
180C
180C
180C
180C
180C
181C
0FE7
0000
0000
0000
ENDCHAR

STARTCHAR U+016C
ENCODING 364
SWIDTH 1000 0
DWIDTH 16 0
BBX 16 16 0 -3
BITMAP
0220
01C0
0000
7C1F
180C
180C
180C
180C
180C
180C
180C
0C18
07F0
0000
0000
0000
ENDCHAR

STARTCHAR U+016D
ENCODING 365
SWIDTH 1000 0
DWIDTH 16 0
BBX 16 16 0 -3
BITMAP
0000
0220
01C0
0000
0000
783C
180C
180C
180C
180C
180C
181C
0FE7
0000
0000
0000
ENDCHAR

STARTCHAR U+016E
ENCODING 366
SWIDTH 1000 0
DWIDTH 16 0
BBX 16 16 0 -3
BITMAP
03C0
0180
0000
7C1F
180C
180C
180C
180C
180C
180C
180C
0C18
07F0
0000
0000
0000
ENDCHAR

STARTCHAR U+016F
ENCODING 367
SWIDTH 1000 0
DWIDTH 16 0
BBX 16 16 0 -3
BITMAP
0000
0100
0280
0100
0000
783C
180C
180C
180C
180C
180C
181C
0FE7
0000
0000
0000
ENDCHAR

STARTCHAR U+0170
ENCODING 368
SWIDTH 1000 0
DWIDTH 16 0
BBX 16 16 0 -3
BITMAP
01B0
0360
0000
7C1F
180C
180C
180C
180C
180C
180C
180C
0C18
07F0
0000
0000
0000
ENDCHAR

STARTCHAR U+0171
ENCODING 369
SWIDTH 1000 0
DWIDTH 16 0
BBX 16 16 0 -3
BITMAP
0000
0330
0660
0440
0000
783C
180C
180C
180C
180C
180C
181C
0FE7
0000
0000
0000
ENDCHAR

STARTCHAR U+0172
ENCODING 370
SWIDTH 1000 0
DWIDTH 16 0
BBX 16 16 0 -3
BITMAP
0000
0000
7C1F
180C
180C
180C
180C
180C
180C
180C
180C
0C18
07F0
00C0
0180
00E0
ENDCHAR

STARTCHAR U+0173
ENCODING 371
SWIDTH 1000 0
DWIDTH 16 0
BBX 16 16 0 -3
BITMAP
0000
0000
0000
0000
0000
783C
180C
180C
180C
180C
180C
181C
0FE7
000C
0018
000E
ENDCHAR

STARTCHAR U+0174
ENCODING 372
SWIDTH 1000 0
DWIDTH 16 0
BBX 16 16 0 -3
BITMAP
01C0
0360
0000
7C1F
180C
180C
180C
188C
19CC
1B6C
1E3C
1C1C
180C
0000
0000
0000
ENDCHAR

STARTCHAR U+0175
ENCODING 373
SWIDTH 1000 0
DWIDTH 16 0
BBX 16 16 0 -3
BITMAP
0000
0080
01C0
0360
0000
780F
180C
180C
180C
19CC
19CC
0F78
0630
0000
0000
0000
ENDCHAR

STARTCHAR U+0176
ENCODING 374
SWIDTH 1000 0
DWIDTH 16 0
BBX 16 16 0 -3
BITMAP
01C0
0360
0000
7C3E
1818
0C30
0660
03C0
0180
0180
0180
0180
07E0
0000
0000
0000
ENDCHAR

STARTCHAR U+0177
ENCODING 375
SWIDTH 1000 0
DWIDTH 16 0
BBX 16 16 0 -3
BITMAP
0000
0080
01C0
0360
0000
783F
180C
180C
180C
180C
0FFC
000C
700C
1FF8
0000
0000
ENDCHAR

STARTCHAR U+0178
ENCODING 376
SWIDTH 1000 0
DWIDTH 16 0
BBX 16 16 0 -3
BITMAP
0660
0660
0000
7C3E
1818
0C30
0660
03C0
0180
0180
0180
0180
07E0
0000
0000
0000
ENDCHAR

STARTCHAR U+0179
ENCODING 377
SWIDTH 1000 0
DWIDTH 16 0
BBX 16 16 0 -3
BITMAP
00C0
0180
0000
3FFC
6038
0070
00E0
01C0
0380
0700
0E00
1C06
3FFC
0000
0000
0000
ENDCHAR

STARTCHAR U+017A
ENCODING 378
SWIDTH 1000 0
DWIDTH 16 0
BBX 16 16 0 -3
BITMAP
0000
00C0
0180
0100
0000
3FFE
600E
0038
00E0
0380
0E00
3803
3FFE
0000
0000
0000
ENDCHAR

STARTCHAR U+017B
ENCODING 379
SWIDTH 1000 0
DWIDTH 16 0
BBX 16 16 0 -3
BITMAP
0180
0180
0000
3FFC
6038
0070
00E0
01C0
0380
0700
0E00
1C06
3FFC
0000
0000
0000
ENDCHAR

STARTCHAR U+017C
ENCODING 380
SWIDTH 1000 0
DWIDTH 16 0
BBX 16 16 0 -3
BITMAP
0000
0000
0180
0180
0000
3FFE
600E
0038
00E0
0380
0E00
3803
3FFE
0000
0000
0000
ENDCHAR

STARTCHAR U+017D
ENCODING 381
SWIDTH 1000 0
DWIDTH 16 0
BBX 16 16 0 -3
BITMAP
0360
01C0
0000
3FFC
6038
0070
00E0
01C0
0380
0700
0E00
1C06
3FFC
0000
0000
0000
ENDCHAR

STARTCHAR U+017E
ENCODING 382
SWIDTH 1000 0
DWIDTH 16 0
BBX 16 16 0 -3
BITMAP
0000
0360
01C0
0080
0000
3FFE
600E
0038
00E0
0380
0E00
3803
3FFE
0000
0000
0000
ENDCHAR

STARTCHAR U+0180
ENCODING 384
SWIDTH 1000 0
DWIDTH 16 0
BBX 16 16 0 -3
BITMAP
0000
0000
7800
1800
7F80
1800
1FF8
180C
1806
1806
1806
1C06
73FC
0000
0000
0000
ENDCHAR

STARTCHAR U+0181
ENCODING 385
SWIDTH 1000 0
DWIDTH 16 0
BBX 16 16 0 -3
BITMAP
0000
0000
3FF0
4C18
4C0C
6C0C
0C18
0FF8
0C0C
0C06
0C06
0C0C
3FF8
0000
0000
0000
ENDCHAR

STARTCHAR U+0187
ENCODING 391
SWIDTH 1000 0
DWIDTH 16 0
BBX 16 16 0 -3
BITMAP
000E
0013
0010
0FF8
180C
3006
3000
3000
3000
3000
3006
180C
0FF8
0000
0000
0000
ENDCHAR

STARTCHAR U+0188
ENCODING 392
SWIDTH 1000 0
DWIDTH 16 0
BBX 16 16 0 -3
BITMAP
0000
0000
000E
0013
0010
1FF8
300C
6000
6000
6000
6000
3007
1FFC
0000
0000
0000
ENDCHAR

STARTCHAR U+0189
ENCODING 393
SWIDTH 1000 0
DWIDTH 16 0
BBX 16 16 0 -3
BITMAP
0000
0000
7FE0
1830
1818
180C
180C
7F8C
180C
180C
1818
1830
7FE0
0000
0000
0000
ENDCHAR

STARTCHAR U+018A
ENCODING 394
SWIDTH 1000 0
DWIDTH 16 0
BBX 16 16 0 -3
BITMAP
0000
0000
3FF0
4C18
4C0C
6C06
0C06
0C06
0C06
0C06
0C0C
0C18
3FF0
0000
0000
0000
ENDCHAR

STARTCHAR U+018E
ENCODING 398
SWIDTH 1000 0
DWIDTH 16 0
BBX 16 16 0 -3
BITMAP
0000
0000
3FFE
6018
0018
0018
0018
0FF8
0018
0018
0018
6018
3FFE
0000
0000
0000
ENDCHAR

STARTCHAR U+0193
ENCODING 403
SWIDTH 1000 0
DWIDTH 16 0
BBX 16 16 0 -3
BITMAP
001C
0026
0020
0FF0
1818
300C
3000
3000
30FF
300C
300C
1818
0FF0
0000
0000
0000
ENDCHAR

STARTCHAR U+01C3
ENCODING 451
SWIDTH 1000 0
DWIDTH 16 0
BBX 16 16 0 -3
BITMAP
0000
0000
0180
03C0
03C0
03C0
03C0
0180
0180
0180
0000
0180
03C0
0180
0000
0000
ENDCHAR

STARTCHAR U+01CD
ENCODING 461
SWIDTH 1000 0
DWIDTH 16 0
BBX 16 16 0 -3
BITMAP
0360
01C0
0000
0FC0
0360
0360
0630
0630
0FF8
0C18
180C
180C
7E3F
0000
0000
0000
ENDCHAR

STARTCHAR U+01CE
ENCODING 462
SWIDTH 1000 0
DWIDTH 16 0
BBX 16 16 0 -3
BITMAP
0000
0360
01C0
0080
0000
1FF8
700C
000C
0FFC
180C
300C
301C
1FE7
0000
0000
0000
ENDCHAR

STARTCHAR U+01CF
ENCODING 463
SWIDTH 1000 0
DWIDTH 16 0
BBX 16 16 0 -3
BITMAP
0360
01C0
0000
3FFC
0180
0180
0180
0180
0180
0180
0180
0180
3FFC
0000
0000
0000
ENDCHAR

STARTCHAR U+01D0
ENCODING 464
SWIDTH 1000 0
DWIDTH 16 0
BBX 16 16 0 -3
BITMAP
0000
0360
01C0
0080
0000
0000
1FC0
00C0
00C0
00C0
00C0
00C0
7FFF
0000
0000
0000
ENDCHAR

STARTCHAR U+01D1
ENCODING 465
SWIDTH 1000 0
DWIDTH 16 0
BBX 16 16 0 -3
BITMAP
0360
01C0
0000
0FF0
1818
300C
300C
300C
300C
300C
300C
1818
0FF0
0000
0000
0000
ENDCHAR

STARTCHAR U+01D2
ENCODING 466
SWIDTH 1000 0
DWIDTH 16 0
BBX 16 16 0 -3
BITMAP
0000
0360
01C0
0080
0000
1FF8
300C
6006
6006
6006
6006
300C
1FF8
0000
0000
0000
ENDCHAR

STARTCHAR U+01D3
ENCODING 467
SWIDTH 1000 0
DWIDTH 16 0
BBX 16 16 0 -3
BITMAP
0360
01C0
0000
7C1F
180C
180C
180C
180C
180C
180C
180C
0C18
07F0
0000
0000
0000
ENDCHAR

STARTCHAR U+01D4
ENCODING 468
SWIDTH 1000 0
DWIDTH 16 0
BBX 16 16 0 -3
BITMAP
0000
0360
01C0
0080
0000
783C
180C
180C
180C
180C
180C
181C
0FE7
0000
0000
0000
ENDCHAR

STARTCHAR U+01DD
ENCODING 477
SWIDTH 1000 0
DWIDTH 16 0
BBX 16 16 0 -3
BITMAP
0000
0000
0000
0000
0000
0FFC
1806
1803
0FFF
0003
0003
7006
1FFC
0000
0000
0000
ENDCHAR

STARTCHAR U+01E2
ENCODING 482
SWIDTH 1000 0
DWIDTH 16 0
BBX 16 16 0 -3
BITMAP
01F0
01F0
0000
1FFC
06C6
06C0
0CC0
0FF8
18C0
18C0
30C0
30C6
79FC
0000
0000
0000
ENDCHAR

STARTCHAR U+01E3
ENCODING 483
SWIDTH 1000 0
DWIDTH 16 0
BBX 16 16 0 -3
BITMAP
0000
0000
03E0
03E0
0000
3E7C
63C6
0186
1FFC
3180
6180
61C6
3E7C
0000
0000
0000
ENDCHAR

STARTCHAR U+01E6
ENCODING 486
SWIDTH 1000 0
DWIDTH 16 0
BBX 16 16 0 -3
BITMAP
0360
01C0
0000
0FF0
1818
300C
3000
3000
30FF
300C
300C
1818
0FF0
0000
0000
0000
ENDCHAR

STARTCHAR U+01E7
ENCODING 487
SWIDTH 1000 0
DWIDTH 16 0
BBX 16 16 0 -3
BITMAP
0000
0360
01C0
0080
0000
0FE7
181C
300C
300C
180C
0FFC
000C
700C
1FF8
0000
0000
ENDCHAR

STARTCHAR U+01EA
ENCODING 490
SWIDTH 1000 0
DWIDTH 16 0
BBX 16 16 0 -3
BITMAP
0000
0000
0FF0
1818
300C
300C
300C
300C
300C
300C
300C
1818
0FF0
0180
0300
01C0
ENDCHAR

STARTCHAR U+01EB
ENCODING 491
SWIDTH 1000 0
DWIDTH 16 0
BBX 16 16 0 -3
BITMAP
0000
0000
0000
0000
0000
1FF8
300C
6006
6006
6006
6006
300C
1FF8
0180
0300
01C0
ENDCHAR

STARTCHAR U+01EC
ENCODING 492
SWIDTH 1000 0
DWIDTH 16 0
BBX 16 16 0 -3
BITMAP
03E0
03E0
0000
0FF0
1818
300C
300C
300C
300C
300C
300C
1818
0FF0
0180
0300
01C0
ENDCHAR

STARTCHAR U+01ED
ENCODING 493
SWIDTH 1000 0
DWIDTH 16 0
BBX 16 16 0 -3
BITMAP
0000
0000
03E0
03E0
0000
1FF8
300C
6006
6006
6006
6006
300C
1FF8
0180
0300
01C0
ENDCHAR

STARTCHAR U+01F0
ENCODING 496
SWIDTH 1000 0
DWIDTH 16 0
BBX 16 16 0 -3
BITMAP
0000
0036
001C
0008
0000
0000
03FC
000C
000C
000C
000C
000C
700C
1FF8
0000
0000
ENDCHAR

STARTCHAR U+01F4
ENCODING 500
SWIDTH 1000 0
DWIDTH 16 0
BBX 16 16 0 -3
BITMAP
00C0
0180
0000
0FF0
1818
300C
3000
3000
30FF
300C
300C
1818
0FF0
0000
0000
0000
ENDCHAR

STARTCHAR U+01F5
ENCODING 501
SWIDTH 1000 0
DWIDTH 16 0
BBX 16 16 0 -3
BITMAP
0000
0060
00C0
0080
0000
0FE7
181C
300C
300C
180C
0FFC
000C
700C
1FF8
0000
0000
ENDCHAR

STARTCHAR U+01F8
ENCODING 504
SWIDTH 1000 0
DWIDTH 16 0
BBX 16 16 0 -3
BITMAP
0220
01C0
0000
783F
1C0C
1E0C
1B0C
198C
18CC
186C
183C
181C
7E0C
0000
0000
0000
ENDCHAR

STARTCHAR U+01F9
ENCODING 505
SWIDTH 1000 0
DWIDTH 16 0
BBX 16 16 0 -3
BITMAP
0000
0220
01C0
0000
0000
73F0
1C18
180C
180C
180C
180C
180C
7E0F
0000
0000
0000
ENDCHAR

STARTCHAR U+01FC
ENCODING 508
SWIDTH 1000 0
DWIDTH 16 0
BBX 16 16 0 -3
BITMAP
0060
00C0
0000
1FFC
06C6
06C0
0CC0
0FF8
18C0
18C0
30C0
30C6
79FC
0000
0000
0000
ENDCHAR

STARTCHAR U+01FD
ENCODING 509
SWIDTH 1000 0
DWIDTH 16 0
BBX 16 16 0 -3
BITMAP
0000
00C0
0180
0100
0000
3E7C
63C6
0186
1FFC
3180
6180
61C6
3E7C
0000
0000
0000
ENDCHAR

STARTCHAR U+01FE
ENCODING 510
SWIDTH 1000 0
DWIDTH 16 0
BBX 16 16 0 -3
BITMAP
00C0
0180
0000
0FDC
1838
306C
30CC
318C
330C
360C
3C0C
1818
37F0
0000
0000
0000
ENDCHAR

STARTCHAR U+01FF
ENCODING 511
SWIDTH 1000 0
DWIDTH 16 0
BBX 16 16 0 -3
BITMAP
0000
0060
00C0
0080
0000
0FFA
180E
303C
30E6
3386
1E06
380C
2FF8
0000
0000
0000
ENDCHAR

STARTCHAR U+0202
ENCODING 514
SWIDTH 1000 0
DWIDTH 16 0
BBX 16 16 0 -3
BITMAP
0380
0440
0000
0FC0
0360
0360
0630
0630
0FF8
0C18
180C
180C
7E3F
0000
0000
0000
ENDCHAR

STARTCHAR U+0203
ENCODING 515
SWIDTH 1000 0
DWIDTH 16 0
BBX 16 16 0 -3
BITMAP
0000
01C0
0220
0000
0000
1FF8
700C
000C
0FFC
180C
300C
301C
1FE7
0000
0000
0000
ENDCHAR

STARTCHAR U+0206
ENCODING 518
SWIDTH 1000 0
DWIDTH 16 0
BBX 16 16 0 -3
BITMAP
01C0
0220
0000
7FFC
1806
1800
1800
1FF0
1800
1800
1800
1806
7FFC
0000
0000
0000
ENDCHAR

STARTCHAR U+0207
ENCODING 519
SWIDTH 1000 0
DWIDTH 16 0
BBX 16 16 0 -3
BITMAP
0000
01C0
0220
0000
0000
1FF8
300C
600C
7FF8
6000
6000
3007
1FFC
0000
0000
0000
ENDCHAR

STARTCHAR U+020A
ENCODING 522
SWIDTH 1000 0
DWIDTH 16 0
BBX 16 16 0 -3
BITMAP
0380
0440
0000
3FFC
0180
0180
0180
0180
0180
0180
0180
0180
3FFC
0000
0000
0000
ENDCHAR

STARTCHAR U+020B
ENCODING 523
SWIDTH 1000 0
DWIDTH 16 0
BBX 16 16 0 -3
BITMAP
0000
01C0
0220
0000
0000
0000
1FC0
00C0
00C0
00C0
00C0
00C0
7FFF
0000
0000
0000
ENDCHAR

STARTCHAR U+020E
ENCODING 526
SWIDTH 1000 0
DWIDTH 16 0
BBX 16 16 0 -3
BITMAP
01C0
0220
0000
0FF0
1818
300C
300C
300C
300C
300C
300C
1818
0FF0
0000
0000
0000
ENDCHAR

STARTCHAR U+020F
ENCODING 527
SWIDTH 1000 0
DWIDTH 16 0
BBX 16 16 0 -3
BITMAP
0000
01C0
0220
0000
0000
1FF8
300C
6006
6006
6006
6006
300C
1FF8
0000
0000
0000
ENDCHAR

STARTCHAR U+0212
ENCODING 530
SWIDTH 1000 0
DWIDTH 16 0
BBX 16 16 0 -3
BITMAP
01C0
0220
0000
7FF0
1818
180C
180C
1FF8
18C0
1860
1830
1818
7C3F
0000
0000
0000
ENDCHAR

STARTCHAR U+0213
ENCODING 531
SWIDTH 1000 0
DWIDTH 16 0
BBX 16 16 0 -3
BITMAP
0000
00E0
0110
0000
0000
79FC
0E07
0C00
0C00
0C00
0C00
0C00
7F80
0000
0000
0000
ENDCHAR

STARTCHAR U+0216
ENCODING 534
SWIDTH 1000 0
DWIDTH 16 0
BBX 16 16 0 -3
BITMAP
01C0
0220
0000
7C1F
180C
180C
180C
180C
180C
180C
180C
0C18
07F0
0000
0000
0000
ENDCHAR

STARTCHAR U+0217
ENCODING 535
SWIDTH 1000 0
DWIDTH 16 0
BBX 16 16 0 -3
BITMAP
0000
01C0
0220
0000
0000
783C
180C
180C
180C
180C
180C
181C
0FE7
0000
0000
0000
ENDCHAR

STARTCHAR U+0218
ENCODING 536
SWIDTH 1000 0
DWIDTH 16 0
BBX 16 16 0 -3
BITMAP
0000
0000
0FF8
1C0C
3800
3800
1C00
0FF8
001C
000E
000E
301C
1FF0
0000
0180
0300
ENDCHAR

STARTCHAR U+0219
ENCODING 537
SWIDTH 1000 0
DWIDTH 16 0
BBX 16 16 0 -3
BITMAP
0000
0000
0000
0000
0000
0FFC
3807
3800
0FF8
000C
0006
7006
1FFC
0000
00C0
0180
ENDCHAR

STARTCHAR U+021A
ENCODING 538
SWIDTH 1000 0
DWIDTH 16 0
BBX 16 16 0 -3
BITMAP
0000
0000
3FFC
6186
0180
0180
0180
0180
0180
0180
0180
0180
07E0
0000
0180
0300
ENDCHAR

STARTCHAR U+021B
ENCODING 539
SWIDTH 1000 0
DWIDTH 16 0
BBX 16 16 0 -3
BITMAP
0000
0000
0000
0600
0600
0600
7FF8
0600
0600
0600
0600
0607
01FC
0000
0060
00C0
ENDCHAR

STARTCHAR U+021E
ENCODING 542
SWIDTH 1000 0
DWIDTH 16 0
BBX 16 16 0 -3
BITMAP
0360
01C0
0000
7C1F
180C
180C
180C
1FFC
180C
180C
180C
180C
7C1F
0000
0000
0000
ENDCHAR

STARTCHAR U+021F
ENCODING 543
SWIDTH 1000 0
DWIDTH 16 0
BBX 16 16 0 -3
BITMAP
0D80
0700
0200
7800
1800
1800
1FF8
180C
180C
180C
180C
180C
7E0F
0000
0000
0000
ENDCHAR

STARTCHAR U+0226
ENCODING 550
SWIDTH 1000 0
DWIDTH 16 0
BBX 16 16 0 -3
BITMAP
0180
0180
0000
0FC0
0360
0360
0630
0630
0FF8
0C18
180C
180C
7E3F
0000
0000
0000
ENDCHAR

STARTCHAR U+0227
ENCODING 551
SWIDTH 1000 0
DWIDTH 16 0
BBX 16 16 0 -3
BITMAP
0000
0000
0180
0180
0000
1FF8
700C
000C
0FFC
180C
300C
301C
1FE7
0000
0000
0000
ENDCHAR

STARTCHAR U+0228
ENCODING 552
SWIDTH 1000 0
DWIDTH 16 0
BBX 16 16 0 -3
BITMAP
0000
0000
0000
7FFC
1806
1800
1800
1FF0
1800
1800
1800
1806
7FFC
00C0
0060
01C0
ENDCHAR

STARTCHAR U+0229
ENCODING 553
SWIDTH 1000 0
DWIDTH 16 0
BBX 16 16 0 -3
BITMAP
0000
0000
0000
0000
0000
1FF8
300C
600C
7FF8
6000
6000
3007
1FFC
00C0
0060
01C0
ENDCHAR

STARTCHAR U+022E
ENCODING 558
SWIDTH 1000 0
DWIDTH 16 0
BBX 16 16 0 -3
BITMAP
0180
0180
0000
0FF0
1818
300C
300C
300C
300C
300C
300C
1818
0FF0
0000
0000
0000
ENDCHAR

STARTCHAR U+022F
ENCODING 559
SWIDTH 1000 0
DWIDTH 16 0
BBX 16 16 0 -3
BITMAP
0000
0000
0180
0180
0000
1FF8
300C
6006
6006
6006
6006
300C
1FF8
0000
0000
0000
ENDCHAR

STARTCHAR U+0232
ENCODING 562
SWIDTH 1000 0
DWIDTH 16 0
BBX 16 16 0 -3
BITMAP
03C0
03C0
0000
7C3E
1818
0C30
0660
03C0
0180
0180
0180
0180
07E0
0000
0000
0000
ENDCHAR

STARTCHAR U+0233
ENCODING 563
SWIDTH 1000 0
DWIDTH 16 0
BBX 16 16 0 -3
BITMAP
0000
0000
03E0
03E0
0000
783F
180C
180C
180C
180C
0FFC
000C
700C
1FF8
0000
0000
ENDCHAR

STARTCHAR U+0237
ENCODING 567
SWIDTH 1000 0
DWIDTH 16 0
BBX 16 16 0 -3
BITMAP
0000
0000
0000
0000
0000
0000
03FC
000C
000C
000C
000C
000C
700C
1FF8
0000
0000
ENDCHAR

STARTCHAR U+2020
ENCODING 8224
SWIDTH 1000 0
DWIDTH 16 0
BBX 16 16 0 -3
BITMAP
0000
0000
0180
0180
0180
1FF8
1FF8
0180
0180
0180
0180
0180
0180
0180
0180
0000
ENDCHAR

STARTCHAR U+2021
ENCODING 8225
SWIDTH 1000 0
DWIDTH 16 0
BBX 16 16 0 -3
BITMAP
0000
0000
0180
0180
0180
1FF8
1FF8
0180
0180
0180
1FF8
1FF8
0180
0180
0180
0000
ENDCHAR

STARTCHAR U+2022
ENCODING 8226
SWIDTH 1000 0
DWIDTH 16 0
BBX 16 16 0 -3
BITMAP
0000
0000
0000
0000
0000
0000
0180
03C0
03C0
0180
0000
0000
0000
0000
0000
0000
ENDCHAR

STARTCHAR U+2039
ENCODING 8249
SWIDTH 1000 0
DWIDTH 16 0
BBX 16 16 0 -3
BITMAP
0000
0000
0000
0000
0000
0070
01C0
0700
01C0
0070
0000
0000
0000
0000
0000
0000
ENDCHAR

STARTCHAR U+203A
ENCODING 8250
SWIDTH 1000 0
DWIDTH 16 0
BBX 16 16 0 -3
BITMAP
0000
0000
0000
0000
0000
0700
01C0
0070
01C0
0700
0000
0000
0000
0000
0000
0000
ENDCHAR

STARTCHAR U+20AC
ENCODING 8364
SWIDTH 1000 0
DWIDTH 16 0
BBX 16 16 0 -3
BITMAP
0000
03F8
07FC
0E04
3FC0
3FC0
0C00
0C00
3FC0
3FC0
0E04
07FC
03F8
0000
0000
0000
ENDCHAR

STARTCHAR U+22C5
ENCODING 8901
SWIDTH 1000 0
DWIDTH 16 0
BBX 16 16 0 -3
BITMAP
0000
0000
0000
0000
0000
0000
0000
0000
0180
0000
0000
0000
0000
0000
0000
0000
ENDCHAR
ENDFONT
